<svg width="160" height="33" viewBox="0 0 160 33" fill="none" xmlns="http://www.w3.org/2000/svg">
<g clip-path="url(#clip0_905_118)">
<path d="M3.12174 24.9149C4.28559 24.9149 5.35483 24.8663 6.33235 24.7693C7.307 24.6694 8.16125 24.5581 8.89223 24.4297C9.74075 24.2899 10.5147 24.13 11.2142 23.9445L10.7842 26.3276C10.6667 26.319 10.4889 26.3076 10.251 26.299C10.0131 26.2876 9.74935 26.279 9.45122 26.2676C9.16456 26.2591 8.8607 26.2476 8.53391 26.2362C8.21858 26.2362 7.91758 26.2305 7.63092 26.222C7.34426 26.222 7.08913 26.2163 6.86267 26.2077H0V26.1478C0.0601989 25.9423 0.114665 25.6854 0.163397 25.3829C0.223596 25.0804 0.272328 24.7008 0.312461 24.2499C0.352593 23.799 0.381259 23.2624 0.401326 22.646C0.421392 22.0181 0.429992 21.2847 0.429992 20.4513V10.8678C0.429992 10.0316 0.421392 9.30672 0.401326 8.68741C0.381259 8.05955 0.352593 7.52015 0.312461 7.06923C0.272328 6.6069 0.223596 6.22447 0.163397 5.92195C0.114665 5.61658 0.0601989 5.36258 0 5.15425V5.09717H3.54887V5.15425C3.48867 5.36258 3.43134 5.61658 3.37114 5.92195C3.3224 6.22447 3.27654 6.6069 3.23927 7.06923C3.21061 7.52015 3.17907 8.0624 3.15041 8.68741C3.13034 9.30672 3.12174 10.0316 3.12174 10.8678V24.9149Z" fill="#000"/>
<path d="M14.0636 26.1506C14.1238 25.9451 14.1783 25.6883 14.227 25.3858C14.2757 25.0832 14.3216 24.7037 14.3589 24.2528C14.399 23.8018 14.4277 23.2653 14.4477 22.6488C14.4678 22.021 14.4764 21.2875 14.4764 20.4542V10.8678C14.4764 10.0316 14.4678 9.30672 14.4477 8.68741C14.4277 8.05955 14.399 7.52015 14.3589 7.06923C14.3187 6.6069 14.2757 6.22447 14.227 5.92195C14.1783 5.61658 14.1238 5.36258 14.0636 5.15425V5.09717H17.5981V5.15425C17.5379 5.36258 17.4806 5.61658 17.4204 5.92195C17.3717 6.22447 17.3258 6.6069 17.2885 7.06923C17.2599 7.52015 17.2283 8.0624 17.1997 8.68741C17.1796 9.30672 17.171 10.0316 17.171 10.8678V20.4513C17.171 21.2847 17.1796 22.0181 17.1997 22.646C17.2283 23.2624 17.2599 23.799 17.2885 24.2499C17.3287 24.7008 17.3717 25.0804 17.4204 25.3829C17.4806 25.6854 17.5379 25.9423 17.5981 26.1478V26.2077H14.0636V26.1478V26.1506Z" fill="#000"/>
<path d="M23.3084 5.09717V5.15425C23.2883 5.20276 23.274 5.27982 23.2625 5.37685C23.2539 5.47674 23.2482 5.56236 23.2482 5.64227C23.2482 5.94479 23.2883 6.2844 23.3657 6.65827C23.4546 7.02072 23.618 7.47735 23.8531 8.02815L30.4061 22.7373L36.7356 8.14517C36.8847 7.78272 37.0423 7.38317 37.2086 6.95222C37.3749 6.52128 37.4609 6.08177 37.4609 5.64227C37.4609 5.52526 37.4523 5.42537 37.4322 5.34831C37.4121 5.25984 37.3921 5.1942 37.372 5.15425V5.09717H40.4049V5.15425C40.2185 5.34261 39.9921 5.67366 39.7255 6.15883C39.4589 6.63829 39.1694 7.23191 38.854 7.93968L30.3803 26.67H29.1964L21.167 8.66173C20.9807 8.23935 20.7829 7.83123 20.5765 7.44024C20.3787 7.04926 20.1924 6.69537 20.0147 6.38144C19.8369 6.05894 19.6793 5.78782 19.5417 5.57377C19.4041 5.35688 19.3095 5.21989 19.2607 5.15995V5.10288H23.3141L23.3084 5.09717Z" fill="#000"/>
<path d="M42.0475 26.1506C42.1077 25.9451 42.1622 25.6883 42.2109 25.3858C42.2596 25.0832 42.3055 24.7037 42.3428 24.2528C42.3829 23.8018 42.4115 23.2653 42.4316 22.6488C42.4517 22.021 42.4603 21.2875 42.4603 20.4542V10.8678C42.4603 10.0316 42.4517 9.30672 42.4316 8.68741C42.4115 8.05955 42.3829 7.52015 42.3428 7.06923C42.3026 6.6069 42.2596 6.22447 42.2109 5.92195C42.1622 5.61658 42.1077 5.36258 42.0475 5.15425V5.09717H45.582V5.15425C45.5218 5.36258 45.4645 5.61658 45.4043 5.92195C45.3556 6.22447 45.3097 6.6069 45.2724 7.06923C45.2438 7.52015 45.2122 8.0624 45.1836 8.68741C45.1635 9.30672 45.1549 10.0316 45.1549 10.8678V20.4513C45.1549 21.2847 45.1635 22.0181 45.1836 22.646C45.2122 23.2624 45.2438 23.799 45.2724 24.2499C45.3126 24.7008 45.3556 25.0804 45.4043 25.3829C45.4645 25.6854 45.5218 25.9423 45.582 26.1478V26.2077H42.0475V26.1478V26.1506Z" fill="#000"/>
<path d="M50.7878 5.09717L66.021 21.2361V10.8678C66.021 10.0316 66.0124 9.30672 65.9923 8.68741C65.9722 8.05955 65.9436 7.52016 65.9034 7.06923C65.8633 6.6069 65.8146 6.22447 65.7544 5.92195C65.7056 5.61658 65.6512 5.36258 65.591 5.15425V5.09717H68.2225V5.15425C68.1623 5.36258 68.1079 5.61658 68.0591 5.92195C68.0104 6.22447 67.9645 6.6069 67.9273 7.06923C67.8871 7.52016 67.8585 8.0624 67.8384 8.68741C67.8183 9.30672 67.8097 10.0316 67.8097 10.8678V26.5045H67.2909L52.0577 10.3798V20.4513C52.0577 21.2847 52.0663 22.0181 52.0864 22.646C52.1064 23.2624 52.1351 23.799 52.1752 24.2499C52.2153 24.7008 52.2583 25.0804 52.3071 25.3829C52.3558 25.6854 52.4103 25.9423 52.4705 26.1478V26.2077H49.8389V26.1478C49.8991 25.9423 49.9536 25.6854 50.0023 25.3829C50.0625 25.0804 50.1113 24.7008 50.1514 24.2499C50.1915 23.799 50.2202 23.2624 50.2403 22.646C50.2603 22.0181 50.2689 21.2847 50.2689 20.4513V10.8678C50.2689 10.0316 50.2603 9.30672 50.2403 8.68741C50.2202 8.05955 50.1915 7.52016 50.1514 7.06923C50.1113 6.6069 50.0625 6.22447 50.0023 5.92195C49.9536 5.61658 49.8991 5.36258 49.8389 5.15425V5.09717H50.7849H50.7878Z" fill="#000"/>
<path d="M90.3069 23.7361C90.3069 23.8445 90.2925 23.9587 90.2639 24.0757C90.2438 24.1927 90.1893 24.2897 90.1005 24.3696C89.6562 24.7007 89.1746 25.0118 88.65 25.2943C88.1369 25.5711 87.5807 25.8109 86.9787 26.0164C86.3768 26.2218 85.726 26.3788 85.0266 26.4873C84.3357 26.6043 83.5933 26.6642 82.7935 26.6642C80.999 26.6642 79.3622 26.4016 77.883 25.8822C76.4038 25.3543 75.131 24.6065 74.0675 23.6447C73.0126 22.683 72.1928 21.5328 71.6108 20.1858C71.0289 18.8302 70.7394 17.329 70.7394 15.6794C70.7394 14.7462 70.8569 13.8301 71.0948 12.9254C71.3414 12.0235 71.6968 11.1645 72.1584 10.3511C72.6227 9.53491 73.1932 8.79004 73.8726 8.11366C74.552 7.42586 75.326 6.83224 76.1945 6.32995C77.0717 5.83051 78.032 5.44238 79.0784 5.1684C80.1333 4.88301 81.2713 4.74316 82.4954 4.74316C82.9683 4.74316 83.4528 4.766 83.9459 4.81737C84.4389 4.85447 84.9262 4.92011 85.4107 5.00858C85.8952 5.08564 86.3567 5.18552 86.801 5.30253C87.2539 5.41955 87.6839 5.55368 88.0881 5.70208L89.0943 8.42473L88.9768 8.48467C88.5926 8.13934 88.1483 7.82256 87.6467 7.5286C87.145 7.23465 86.6061 6.97779 86.0356 6.76375C85.4623 6.54685 84.8632 6.37847 84.2325 6.26146C83.6105 6.13303 82.9798 6.07024 82.3406 6.07024C81.0993 6.07024 79.9584 6.26716 78.9236 6.65815C77.8887 7.04058 76.9972 7.59995 76.2461 8.33626C75.5066 9.07258 74.9304 9.97727 74.5147 11.0446C74.1019 12.1177 73.8926 13.3335 73.8926 14.6977C73.8926 16.2017 74.0904 17.5944 74.4832 18.8815C74.8788 20.1658 75.4636 21.2788 76.2433 22.2235C77.023 23.1681 77.9948 23.9073 79.1558 24.4467C80.3282 24.9775 81.6956 25.2429 83.2521 25.2429C83.943 25.2429 84.5593 25.1887 85.1011 25.0803C85.6429 24.9718 86.1016 24.8405 86.4771 24.6807C86.8526 24.5123 87.1335 24.3354 87.3199 24.1499C87.5177 23.953 87.6151 23.7789 87.6151 23.6191V23.0454C87.6151 22.3605 87.6065 21.764 87.5865 21.2646C87.5664 20.7651 87.5377 20.3313 87.4976 19.9689C87.4575 19.5979 87.4145 19.2754 87.3657 19.0128C87.317 18.7474 87.2568 18.502 87.188 18.2765V18.2166H90.7369V18.2765C90.6767 18.4848 90.6193 18.7274 90.5591 19.0128C90.5104 19.2868 90.4645 19.615 90.4273 19.9974C90.3871 20.3827 90.3585 20.8336 90.3384 21.353C90.3183 21.861 90.3097 22.4547 90.3097 23.1339V23.7361H90.3069Z" fill="#000"/>
<path d="M113.403 26.1135V26.0421C113.426 25.9822 113.446 25.8937 113.458 25.7738C113.469 25.6568 113.475 25.5484 113.475 25.4542C113.475 25.0861 113.42 24.6808 113.314 24.2413C113.22 23.7875 113.028 23.231 112.741 22.5632L110.574 17.7115C109.906 17.6887 109.014 17.6772 107.905 17.6772H101.564C100.693 17.6772 99.9043 17.6887 99.1991 17.7115L97.138 22.4205C96.9603 22.86 96.7682 23.3423 96.5647 23.8646C96.3612 24.3897 96.2608 24.9177 96.2608 25.4542C96.2608 25.6083 96.2723 25.7396 96.2952 25.8452C96.3182 25.9422 96.344 26.005 96.3669 26.0421V26.1135H92.712V26.0421C92.927 25.8167 93.1964 25.4171 93.5175 24.8463C93.8386 24.2641 94.1911 23.5392 94.5753 22.6716L104.841 0H106.274L116.003 21.7983C116.23 22.3092 116.462 22.8086 116.703 23.2938C116.955 23.7704 117.187 24.1985 117.402 24.5781C117.617 24.9605 117.809 25.2801 117.975 25.5427C118.142 25.8052 118.256 25.9708 118.317 26.0421V26.1135H113.406H113.403ZM101.793 16.1418H103.926C104.654 16.1304 105.365 16.1247 106.059 16.1247C106.764 16.1133 107.438 16.1076 108.083 16.1076C108.728 16.0962 109.313 16.0819 109.837 16.0705L104.803 4.74323L99.8584 16.1418H101.793Z" fill="#000"/>
<path d="M127.45 15.1974C126.865 15.2573 126.26 15.2858 125.641 15.2858C125.022 15.2858 124.385 15.2345 123.743 15.126V19.1386C123.743 20.1489 123.755 21.0365 123.777 21.7985C123.812 22.5462 123.849 23.1941 123.886 23.742C123.935 24.2871 123.987 24.7466 124.047 25.1148C124.119 25.4829 124.19 25.794 124.262 26.0423V26.1136H119.962V26.0423C120.034 25.794 120.1 25.4829 120.16 25.1148C120.231 24.7466 120.292 24.2871 120.338 23.742C120.386 23.1941 120.421 22.5462 120.446 21.7985C120.469 21.0365 120.481 20.1489 120.481 19.1386V7.52885C120.481 6.51571 120.469 5.6367 120.446 4.88611C120.424 4.12697 120.386 3.47342 120.338 2.92546C120.289 2.36609 120.229 1.90376 120.16 1.5356C120.1 1.16459 120.034 0.856363 119.962 0.605217V0.536723C120.2 0.559554 120.452 0.582386 120.713 0.605217C120.94 0.630903 121.192 0.648026 121.467 0.659442H122.344C122.809 0.659442 123.436 0.605217 124.225 0.499622C125.024 0.379757 126.039 0.319824 127.272 0.319824C128.419 0.319824 129.476 0.47679 130.442 0.785015C131.423 1.09324 132.271 1.54701 132.988 2.14063C133.705 2.73425 134.261 3.46771 134.653 4.3353C135.06 5.19148 135.261 6.16467 135.261 7.26058C135.261 8.11676 135.146 8.91301 134.92 9.64932C134.705 10.3742 134.395 11.0363 133.988 11.63C133.593 12.2236 133.117 12.7544 132.555 13.2167C131.993 13.6705 131.365 14.0501 130.675 14.3583C130.675 14.3583 129.066 14.9548 127.45 15.1974ZM123.74 13.7333C124.91 13.9502 125.979 13.9787 126.948 13.8246C127.928 13.6705 128.763 13.3309 129.456 12.8086C130.161 12.2835 130.703 11.5757 131.087 10.6853C131.483 9.7806 131.678 8.68755 131.678 7.40328C131.678 6.51 131.578 5.70234 131.374 4.97744C131.17 4.25254 130.867 3.63895 130.46 3.13951C130.067 2.62865 129.565 2.23481 128.955 1.96369C128.347 1.6783 127.636 1.5356 126.822 1.5356C126.309 1.5356 125.862 1.55843 125.477 1.60409C125.096 1.64119 124.772 1.684 124.508 1.72967C124.199 1.7896 123.941 1.85524 123.737 1.92659V13.7333H123.74Z" fill="#000"/>
<path d="M146.71 2.1064C145.3 2.1064 144.03 2.16919 142.895 2.30047C141.76 2.42033 140.779 2.55161 139.957 2.69431C139.002 2.87125 138.148 3.06818 137.394 3.28222L137.913 0.394043C138.056 0.405459 138.271 0.416874 138.558 0.42829C138.844 0.439706 139.16 0.451122 139.507 0.462537C139.865 0.476807 140.235 0.488223 140.619 0.499638C141.014 0.499638 141.384 0.505346 141.731 0.516762C142.078 0.516762 142.382 0.52247 142.646 0.536739H154.04C154.316 0.52247 154.625 0.516762 154.972 0.516762C155.319 0.505346 155.683 0.499638 156.064 0.499638C156.46 0.488223 156.83 0.476807 157.176 0.462537C157.535 0.451122 157.859 0.439706 158.145 0.42829C158.432 0.416874 158.647 0.405459 158.79 0.394043L159.309 3.28222C158.544 3.06818 157.684 2.87125 156.729 2.69431C155.904 2.55161 154.926 2.42033 153.791 2.30047C152.656 2.16919 151.383 2.1064 149.975 2.1064V19.1387C149.975 20.149 149.987 21.0365 150.01 21.7985C150.044 22.5463 150.082 23.1941 150.119 23.7421C150.168 24.2872 150.219 24.7466 150.279 25.1148C150.351 25.4829 150.423 25.794 150.494 26.0423V26.1137H146.212V26.0423C146.283 25.794 146.349 25.4829 146.409 25.1148C146.47 24.7466 146.524 24.2872 146.57 23.7421C146.619 23.1941 146.653 22.5463 146.679 21.7985C146.702 21.0365 146.713 20.149 146.713 19.1387V2.1064H146.71Z" fill="#000"/>
<path d="M132.558 13.2168C131.924 13.9217 132.667 15.4914 132.667 15.4914C133.693 17.1467 134.625 18.5708 135.456 19.7637C135.456 19.7637 138.592 25.5886 145.833 30.1406C153.074 34.6926 159.229 27.9402 159.229 27.9402C159.229 27.9402 159.862 27.2011 160 27.9944C160.138 28.7878 155.044 33.5054 148.78 32.9517C142.517 32.3981 136.471 27.2267 132.739 22.318C132.03 21.3933 131.039 19.8836 129.766 17.7888L129.107 16.73C128.74 16.1706 128.384 15.791 128.043 15.597C127.699 15.3772 127.114 15.2688 126.283 15.2688" fill="#000"/>
</g>
<defs>
<clipPath id="clip0_905_118">
<rect width="160" height="33" fill="#000"/>
</clipPath>
</defs>
</svg>
