<svg width="298" height="61" viewBox="0 0 298 61" fill="none" xmlns="http://www.w3.org/2000/svg">
<g clip-path="url(#clip0_1645_180)">
<path d="M5.81424 46.0547C7.9819 46.0547 9.97338 45.965 11.794 45.7857C13.6093 45.601 15.2003 45.3953 16.5618 45.1579C18.1421 44.8994 19.5837 44.604 20.8864 44.2611L20.0856 48.6661C19.8667 48.6502 19.5356 48.6291 19.0925 48.6133C18.6494 48.5922 18.1582 48.5764 17.6029 48.5553C17.069 48.5394 16.5031 48.5183 15.8944 48.4972C15.3071 48.4972 14.7465 48.4867 14.2126 48.4709C13.6787 48.4709 13.2035 48.4603 12.7817 48.4445H0V48.3337C0.11212 47.9539 0.213563 47.4791 0.304327 46.9199C0.416447 46.3607 0.507211 45.659 0.581958 44.8255C0.656705 43.992 0.710096 43.0002 0.747469 41.8607C0.784843 40.7001 0.80086 39.3443 0.80086 37.8039V20.089C0.80086 18.5432 0.784843 17.2033 0.747469 16.0585C0.710096 14.8979 0.656705 13.9009 0.581958 13.0673C0.507211 12.2127 0.416447 11.5058 0.304327 10.9466C0.213563 10.3821 0.11212 9.91261 0 9.52751V9.422H6.60976V9.52751C6.49764 9.91261 6.39086 10.3821 6.27874 10.9466C6.18798 11.5058 6.10255 12.2127 6.03314 13.0673C5.97975 13.9009 5.92102 14.9032 5.86763 16.0585C5.83026 17.2033 5.81424 18.5432 5.81424 20.089V46.0547Z" fill="white"/>
<path d="M26.1934 48.339C26.3055 47.9591 26.4069 47.4844 26.4977 46.9252C26.5885 46.366 26.6739 45.6643 26.7433 44.8308C26.818 43.9973 26.8714 43.0055 26.9088 41.866C26.9462 40.7054 26.9622 39.3496 26.9622 37.8092V20.089C26.9622 18.5432 26.9462 17.2033 26.9088 16.0585C26.8714 14.8979 26.818 13.9009 26.7433 13.0673C26.6685 12.2127 26.5885 11.5058 26.4977 10.9466C26.4069 10.3821 26.3055 9.91261 26.1934 9.52751V9.422H32.7764V9.52751C32.6643 9.91261 32.5575 10.3821 32.4454 10.9466C32.3546 11.5058 32.2692 12.2127 32.1998 13.0673C32.1464 13.9009 32.0877 14.9032 32.0343 16.0585C31.9969 17.2033 31.9809 18.5432 31.9809 20.089V37.8039C31.9809 39.3443 31.9969 40.7001 32.0343 41.8607C32.0877 43.0002 32.1464 43.992 32.1998 44.8255C32.2746 45.659 32.3546 46.3607 32.4454 46.9199C32.5575 47.4791 32.6643 47.9539 32.7764 48.3337V48.4445H26.1934V48.3337V48.339Z" fill="white"/>
<path d="M43.4118 9.422V9.52751C43.3744 9.61719 43.3477 9.75963 43.3264 9.93899C43.3104 10.1236 43.2997 10.2819 43.2997 10.4296C43.2997 10.9888 43.3744 11.6166 43.5186 12.3077C43.6841 12.9776 43.9884 13.8217 44.4262 14.8399L56.6313 42.0295L68.42 15.0562C68.6976 14.3862 68.9913 13.6476 69.3009 12.851C69.6106 12.0544 69.7708 11.242 69.7708 10.4296C69.7708 10.2133 69.7548 10.0287 69.7174 9.88624C69.68 9.7227 69.6426 9.60136 69.6053 9.52751V9.422H75.254V9.52751C74.907 9.87568 74.4852 10.4876 73.9886 11.3845C73.4921 12.2707 72.9529 13.368 72.3656 14.6763L56.5833 49.2991H54.3782L39.4235 16.011C39.0765 15.2303 38.7081 14.4759 38.3237 13.7531C37.9553 13.0304 37.6082 12.3762 37.2772 11.7959C36.9462 11.1998 36.6525 10.6987 36.3963 10.303C36.14 9.90206 35.9638 9.64884 35.873 9.53806V9.43255H43.4225L43.4118 9.422Z" fill="white"/>
<path d="M78.3125 48.339C78.4246 47.9591 78.5261 47.4844 78.6168 46.9252C78.7076 46.366 78.793 45.6643 78.8624 44.8308C78.9372 43.9973 78.9906 43.0055 79.0279 41.866C79.0653 40.7054 79.0813 39.3496 79.0813 37.8092V20.089C79.0813 18.5432 79.0653 17.2033 79.0279 16.0585C78.9906 14.8979 78.9372 13.9009 78.8624 13.0673C78.7877 12.2127 78.7076 11.5058 78.6168 10.9466C78.5261 10.3821 78.4246 9.91261 78.3125 9.52751V9.422H84.8956V9.52751C84.7834 9.91261 84.6767 10.3821 84.5646 10.9466C84.4738 11.5058 84.3884 12.2127 84.3189 13.0673C84.2656 13.9009 84.2068 14.9032 84.1534 16.0585C84.1161 17.2033 84.1001 18.5432 84.1001 20.089V37.8039C84.1001 39.3443 84.1161 40.7001 84.1534 41.8607C84.2068 43.0002 84.2656 43.992 84.3189 44.8255C84.3937 45.659 84.4738 46.3607 84.5646 46.9199C84.6767 47.4791 84.7834 47.9539 84.8956 48.3337V48.4445H78.3125V48.3337V48.339Z" fill="white"/>
<path d="M94.5914 9.422L122.963 39.2547V20.089C122.963 18.5432 122.947 17.2033 122.91 16.0585C122.872 14.8979 122.819 13.9009 122.744 13.0673C122.67 12.2127 122.579 11.5058 122.467 10.9466C122.376 10.3821 122.275 9.91261 122.162 9.52751V9.422H127.064V9.52751C126.952 9.91261 126.85 10.3821 126.759 10.9466C126.669 11.5058 126.583 12.2127 126.514 13.0673C126.439 13.9009 126.386 14.9032 126.348 16.0585C126.311 17.2033 126.295 18.5432 126.295 20.089V48.9931H125.328L96.9567 19.1869V37.8039C96.9567 39.3443 96.9727 40.7001 97.01 41.8607C97.0474 43.0002 97.1008 43.992 97.1756 44.8255C97.2503 45.659 97.3304 46.3607 97.4212 46.9199C97.5119 47.4791 97.6134 47.9539 97.7255 48.3337V48.4445H92.8242V48.3337C92.9363 47.9539 93.0378 47.4791 93.1285 46.9199C93.2407 46.3607 93.3314 45.659 93.4062 44.8255C93.4809 43.992 93.5343 43.0002 93.5717 41.8607C93.6091 40.7001 93.6251 39.3443 93.6251 37.8039V20.089C93.6251 18.5432 93.6091 17.2033 93.5717 16.0585C93.5343 14.8979 93.4809 13.9009 93.4062 13.0673C93.3314 12.2127 93.2407 11.5058 93.1285 10.9466C93.0378 10.3821 92.9363 9.91261 92.8242 9.52751V9.422H94.5861H94.5914Z" fill="white"/>
<path d="M168.196 43.8759C168.196 44.0764 168.17 44.2874 168.116 44.5037C168.079 44.72 167.978 44.8994 167.812 45.0471C166.984 45.659 166.087 46.2341 165.11 46.7563C164.155 47.268 163.119 47.7112 161.998 48.091C160.877 48.4708 159.665 48.761 158.362 48.9615C157.075 49.1777 155.692 49.2885 154.203 49.2885C150.86 49.2885 147.812 48.8032 145.057 47.8431C142.302 46.8671 139.931 45.4849 137.951 43.7071C135.986 41.9293 134.459 39.8033 133.375 37.3133C132.291 34.8074 131.752 32.0325 131.752 28.9833C131.752 27.2583 131.971 25.5648 132.414 23.8925C132.873 22.2255 133.535 20.6376 134.395 19.1341C135.26 17.6253 136.322 16.2484 137.588 14.9981C138.853 13.7267 140.294 12.6294 141.912 11.701C143.546 10.7778 145.335 10.0603 147.283 9.55386C149.248 9.02632 151.368 8.76782 153.647 8.76782C154.528 8.76782 155.431 8.81002 156.349 8.90498C157.267 8.97356 158.175 9.0949 159.077 9.25844C159.98 9.40088 160.839 9.58552 161.667 9.80181C162.51 10.0181 163.311 10.266 164.064 10.5404L165.938 15.5732L165.719 15.6839C165.004 15.0456 164.176 14.46 163.242 13.9167C162.307 13.3733 161.304 12.8985 160.241 12.5028C159.173 12.1019 158.058 11.7907 156.883 11.5744C155.724 11.337 154.55 11.2209 153.359 11.2209C151.047 11.2209 148.922 11.5849 146.995 12.3076C145.068 13.0146 143.407 14.0485 142.008 15.4096C140.631 16.7707 139.558 18.443 138.784 20.416C138.015 22.3996 137.625 24.6469 137.625 27.1686C137.625 29.9487 137.993 32.5232 138.725 34.9024C139.462 37.2763 140.551 39.3338 142.003 41.0799C143.455 42.8261 145.265 44.1925 147.427 45.1895C149.611 46.1707 152.158 46.6614 155.057 46.6614C156.344 46.6614 157.492 46.5611 158.501 46.3607C159.51 46.1602 160.364 45.9175 161.063 45.6221C161.763 45.3109 162.286 44.9838 162.633 44.6409C163.001 44.2769 163.183 43.9551 163.183 43.6596V42.5993C163.183 41.3332 163.167 40.2306 163.13 39.3074C163.092 38.3842 163.039 37.5823 162.964 36.9123C162.889 36.2265 162.809 35.6304 162.719 35.1451C162.628 34.6544 162.516 34.2008 162.388 33.784V33.6732H168.997V33.784C168.885 34.1691 168.778 34.6175 168.666 35.1451C168.575 35.6515 168.49 36.2582 168.421 36.9651C168.346 37.6773 168.293 38.5108 168.255 39.4709C168.218 40.41 168.202 41.5072 168.202 42.7628V43.8759H168.196Z" fill="white"/>
<mask id="path-7-inside-1_1645_180" fill="white">
<path fill-rule="evenodd" clip-rule="evenodd" d="M211.213 48.1385V48.2703H211.218H220.364V48.1385C220.252 48.0066 220.039 47.7006 219.729 47.2153C219.419 46.7299 219.062 46.1391 218.661 45.4322C218.261 44.7305 217.828 43.9392 217.358 43.0582C216.91 42.1614 216.477 41.2382 216.056 40.2939L197.935 0H195.265L176.146 41.9082C175.431 43.5119 174.774 44.8519 174.176 45.928C173.578 46.9831 173.076 47.7217 172.676 48.1385V48.2703H179.483V48.1385C179.44 48.0699 179.392 47.9538 179.35 47.7744C179.307 47.5793 179.286 47.3366 179.286 47.0517C179.286 46.0599 179.472 45.084 179.851 44.1133C180.231 43.1479 180.588 42.2563 180.919 41.4439L184.758 32.7394C186.071 32.6972 187.54 32.6761 189.163 32.6761H200.973C203.039 32.6761 204.7 32.6972 205.944 32.7394L209.98 41.7077C210.514 42.9421 210.871 43.9709 211.048 44.8097C211.245 45.6221 211.347 46.3712 211.347 47.0517C211.347 47.2258 211.336 47.4263 211.315 47.6426C211.293 47.8641 211.256 48.0277 211.213 48.1385ZM193.562 29.8379H189.59H185.986L195.196 8.76779L204.571 29.706C204.315 29.7116 204.05 29.7175 203.778 29.7236C203.015 29.7406 202.19 29.7591 201.304 29.7746C200.103 29.7746 198.848 29.7852 197.534 29.8063C196.242 29.8063 194.918 29.8168 193.562 29.8379ZM235.474 28.2258C234.99 28.2456 234.5 28.2553 234.006 28.2553C232.852 28.2553 231.667 28.1603 230.471 27.9599V35.3771C230.471 37.2447 230.493 38.8853 230.535 40.2939C230.599 41.676 230.669 42.8736 230.738 43.8864C230.829 44.8941 230.925 45.7434 231.037 46.4239C231.171 47.1045 231.304 47.6795 231.438 48.1385V48.2703H223.429V48.1385C223.562 47.6795 223.685 47.1045 223.797 46.4239C223.931 45.7434 224.043 44.8941 224.128 43.8864C224.219 42.8736 224.283 41.676 224.331 40.2939C224.374 38.8853 224.395 37.2447 224.395 35.3771V13.9166C224.395 12.0438 224.374 10.419 224.331 9.03157C224.289 7.6283 224.219 6.42022 224.128 5.40733C224.038 4.37335 223.925 3.51872 223.797 2.83819C223.685 2.15238 223.562 1.58264 223.429 1.1184V0.991785C223.872 1.03399 224.342 1.07619 224.828 1.1184C225.25 1.16588 225.719 1.19753 226.232 1.21863H227.866C228.731 1.21863 229.9 1.1184 231.368 0.923205C232.858 0.701636 234.748 0.590851 237.044 0.590851C239.179 0.590851 241.149 0.881001 242.949 1.45075C244.775 2.0205 246.355 2.85929 247.69 3.95659C249.024 5.05388 250.06 6.40967 250.792 8.01341C251.55 9.59604 251.924 11.395 251.924 13.4207C251.924 15.0034 251.71 16.4752 251.288 17.8363C250.888 19.1763 250.311 20.4002 249.553 21.4974C248.816 22.5947 247.93 23.576 246.883 24.4306C246.882 24.4316 246.881 24.4325 246.88 24.4335L246.889 24.4306C245.709 25.7336 247.092 28.6351 247.092 28.6351C249.003 31.6949 250.738 34.3273 252.287 36.5325C252.287 36.5325 258.128 47.2997 271.614 55.714C285.1 64.1283 296.563 51.6466 296.563 51.6466C296.563 51.6466 297.743 50.2803 298 51.7469C298.256 53.2134 288.768 61.9338 277.103 60.9103C265.437 59.8869 254.177 50.3278 247.225 41.254C245.906 39.5448 244.059 36.754 241.689 32.8819L240.461 30.9247C239.777 29.8907 239.115 29.1891 238.48 28.8303C237.877 28.4483 236.878 28.2483 235.474 28.2258ZM236.44 25.5543C234.636 25.8391 232.644 25.7864 230.466 25.3855H230.46V3.56093C230.84 3.42904 231.32 3.30771 231.897 3.19692C232.388 3.11252 232.991 3.03338 233.701 2.9648C234.417 2.8804 235.25 2.83819 236.205 2.83819C237.722 2.83819 239.046 3.10196 240.178 3.62951C241.315 4.13068 242.249 4.85869 242.981 5.80299C243.739 6.7262 244.305 7.86042 244.684 9.20038C245.063 10.5403 245.25 12.0333 245.25 13.6845C245.25 16.0585 244.887 18.079 244.15 19.7513C243.434 21.3972 242.425 22.7055 241.112 23.6762C239.82 24.6416 238.266 25.2694 236.44 25.5543ZM273.248 3.89328C270.621 3.89328 268.256 4.00934 266.141 4.25201C264.027 4.47358 262.201 4.71625 260.669 4.98002C258.891 5.3071 257.3 5.67111 255.896 6.06677L256.862 0.728014C257.129 0.749116 257.53 0.770218 258.063 0.79132C258.597 0.812422 259.185 0.833523 259.831 0.854625C260.498 0.881002 261.187 0.902104 261.902 0.923206C262.639 0.923206 263.328 0.933757 263.974 0.954859C264.62 0.954859 265.186 0.965409 265.677 0.991787H286.9C287.412 0.965409 287.989 0.954859 288.635 0.954859C289.281 0.933757 289.959 0.923206 290.669 0.923206C291.406 0.902104 292.095 0.881002 292.741 0.854625C293.408 0.833523 294.011 0.812422 294.545 0.79132C295.079 0.770218 295.48 0.749116 295.747 0.728014L296.713 6.06677C295.287 5.67111 293.686 5.3071 291.908 4.98002C290.37 4.71625 288.55 4.47358 286.435 4.25201C284.321 4.00934 281.95 3.89328 279.329 3.89328V35.3772C279.329 37.2447 279.35 38.8853 279.393 40.2939C279.457 41.676 279.527 42.8736 279.596 43.8865C279.687 44.8941 279.783 45.7434 279.895 46.4239C280.028 47.1045 280.162 47.6795 280.295 48.1385V48.2703H272.319V48.1385C272.452 47.6795 272.575 47.1045 272.687 46.4239C272.799 45.7434 272.901 44.8941 272.986 43.8865C273.077 42.8736 273.141 41.676 273.189 40.2939C273.232 38.8853 273.253 37.2447 273.253 35.3772V3.89328H273.248Z"/>
</mask>
<path d="M211.213 48.2703H210.213V49.2703H211.213V48.2703ZM211.213 48.1385L210.28 47.7787L210.213 47.9524V48.1385H211.213ZM220.364 48.2703V49.2703H221.364V48.2703H220.364ZM220.364 48.1385H221.364V47.7708L221.126 47.4907L220.364 48.1385ZM219.729 47.2153L218.886 47.7531V47.7531L219.729 47.2153ZM218.661 45.4322L219.531 44.9393L219.53 44.9365L218.661 45.4322ZM217.358 43.0582L216.464 43.5055L216.47 43.5172L216.476 43.5288L217.358 43.0582ZM216.056 40.2939L216.969 39.886L216.968 39.8837L216.056 40.2939ZM197.935 0L198.847 -0.410149L198.582 -1H197.935V0ZM195.265 0V-1H194.622L194.356 -0.415063L195.265 0ZM176.146 41.9082L175.236 41.4931L175.233 41.5007L176.146 41.9082ZM174.176 45.928L175.046 46.4211L175.05 46.4137L174.176 45.928ZM172.676 48.1385L171.955 47.4456L171.676 47.7359V48.1385H172.676ZM172.676 48.2703H171.676V49.2703H172.676V48.2703ZM179.483 48.2703V49.2703H180.483V48.2703H179.483ZM179.483 48.1385H180.483V47.8525L180.332 47.6098L179.483 48.1385ZM179.35 47.7744L178.373 47.9882L178.375 47.9972L178.377 48.0061L179.35 47.7744ZM179.851 44.1133L178.921 43.7478L178.92 43.7495L179.851 44.1133ZM180.919 41.4439L180.004 41.0404L179.999 41.0534L179.993 41.0666L180.919 41.4439ZM184.758 32.7394L184.726 31.7399L184.097 31.7602L183.843 32.3359L184.758 32.7394ZM205.944 32.7394L206.855 32.329L206.6 31.7611L205.977 31.74L205.944 32.7394ZM209.98 41.7077L210.898 41.3107L210.895 41.304L210.892 41.2973L209.98 41.7077ZM211.048 44.8097L210.069 45.0152L210.072 45.0306L210.076 45.0459L211.048 44.8097ZM211.315 47.6426L210.319 47.5443L210.319 47.5466L211.315 47.6426ZM193.562 29.8379V30.8379H193.57L193.578 30.8378L193.562 29.8379ZM185.986 29.8379L185.07 29.4374L184.458 30.8379H185.986V29.8379ZM195.196 8.76779L196.109 8.35913L195.185 6.29621L194.28 8.36728L195.196 8.76779ZM204.571 29.706L204.593 30.7058L206.1 30.6733L205.484 29.2974L204.571 29.706ZM203.778 29.7236L203.801 30.7233H203.801L203.778 29.7236ZM201.304 29.7746V30.7746H201.313L201.321 30.7745L201.304 29.7746ZM197.534 29.8063V30.8063H197.543L197.551 30.8061L197.534 29.8063ZM235.474 28.2258L235.49 27.2259L235.461 27.2255L235.433 27.2266L235.474 28.2258ZM230.471 27.9599L230.636 26.9736L229.471 26.7783V27.9599H230.471ZM230.535 40.2939L229.536 40.3242L229.536 40.3322L229.536 40.3402L230.535 40.2939ZM230.738 43.8864L229.74 43.9548L229.741 43.9655L229.742 43.9762L230.738 43.8864ZM231.037 46.4239L230.05 46.5865L230.053 46.6015L230.056 46.6164L231.037 46.4239ZM231.438 48.1385H232.438V47.996L232.398 47.8592L231.438 48.1385ZM231.438 48.2703V49.2703H232.438V48.2703H231.438ZM223.429 48.2703H222.429V49.2703H223.429V48.2703ZM223.429 48.1385L222.469 47.8592L222.429 47.996V48.1385H223.429ZM223.797 46.4239L222.816 46.2315L222.813 46.2464L222.811 46.2614L223.797 46.4239ZM224.128 43.8864L223.132 43.7972L223.132 43.802L224.128 43.8864ZM224.331 40.2939L225.331 40.3286L225.331 40.3242L224.331 40.2939ZM224.331 9.03157L223.332 9.06199L223.332 9.06234L224.331 9.03157ZM224.128 5.40733L223.132 5.49478L223.132 5.49659L224.128 5.40733ZM223.797 2.83819L222.81 2.99954L222.812 3.01141L222.815 3.02323L223.797 2.83819ZM223.429 1.1184H222.429V1.2593L222.468 1.39472L223.429 1.1184ZM223.429 0.991785L223.524 -0.00371016L222.429 -0.107976V0.991785H223.429ZM224.828 1.1184L224.94 0.124672L224.927 0.123249L224.914 0.122148L224.828 1.1184ZM226.232 1.21863L226.191 2.21778L226.211 2.21863H226.232V1.21863ZM231.368 0.923205L231.5 1.91448L231.508 1.91346L231.515 1.91232L231.368 0.923205ZM242.949 1.45075L242.647 2.4041L242.651 2.40536L242.949 1.45075ZM247.69 3.95659L247.055 4.72906V4.72906L247.69 3.95659ZM250.792 8.01341L249.882 8.42838L249.886 8.43694L249.89 8.44543L250.792 8.01341ZM251.288 17.8363L250.333 17.5403L250.33 17.55L251.288 17.8363ZM249.553 21.4974L248.73 20.929L248.723 20.94L249.553 21.4974ZM246.883 24.4306L247.509 25.2108L247.516 25.2051L246.883 24.4306ZM246.88 24.4335L246.254 23.6534L247.189 25.3846L246.88 24.4335ZM246.889 24.4306L247.63 25.1018L250.148 22.3208L246.58 23.4795L246.889 24.4306ZM247.092 28.6351L246.189 29.0654L246.213 29.1167L246.244 29.1649L247.092 28.6351ZM252.287 36.5325L253.166 36.0556L253.138 36.005L253.105 35.9578L252.287 36.5325ZM296.563 51.6466L297.3 52.323L297.31 52.3118L297.32 52.3002L296.563 51.6466ZM298 51.7469L297.015 51.919L297.015 51.919L298 51.7469ZM277.103 60.9103L277.19 59.9141L277.103 60.9103ZM247.225 41.254L248.019 40.6458L248.017 40.6431L247.225 41.254ZM241.689 32.8819L242.541 32.3597L242.536 32.3504L241.689 32.8819ZM240.461 30.9247L241.308 30.3932L241.301 30.3832L241.295 30.3733L240.461 30.9247ZM238.48 28.8303L237.944 29.6749L237.966 29.6886L237.988 29.7011L238.48 28.8303ZM230.466 25.3855L230.647 24.402L230.557 24.3855H230.466V25.3855ZM236.44 25.5543L236.286 24.5662L236.284 24.5665L236.44 25.5543ZM230.46 25.3855H229.46V26.3855H230.46V25.3855ZM230.46 3.56093L230.132 2.61646L229.46 2.85005V3.56093H230.46ZM231.897 3.19692L231.727 2.21137L231.718 2.21303L231.708 2.21488L231.897 3.19692ZM233.701 2.9648L233.797 3.96017L233.808 3.95915L233.818 3.95791L233.701 2.9648ZM240.178 3.62951L239.755 4.5359L239.765 4.54034L239.774 4.54459L240.178 3.62951ZM242.981 5.80299L242.19 6.41536L242.199 6.42663L242.208 6.43763L242.981 5.80299ZM244.684 9.20038L245.646 8.92817L244.684 9.20038ZM244.15 19.7513L243.235 19.3481L243.233 19.3526L244.15 19.7513ZM241.112 23.6762L240.518 22.872L240.513 22.8751L241.112 23.6762ZM266.141 4.25201L266.246 5.24661L266.256 5.24549L266.141 4.25201ZM260.669 4.98002L260.499 3.99445L260.488 3.99653L260.669 4.98002ZM255.896 6.06677L254.912 5.88865L254.627 7.46329L256.167 7.02929L255.896 6.06677ZM256.862 0.728014L256.941 -0.268876L256.039 -0.340153L255.878 0.549898L256.862 0.728014ZM258.063 0.79132L258.024 1.79054L258.063 0.79132ZM259.831 0.854625L259.87 -0.144618L259.863 -0.144842L259.831 0.854625ZM261.902 0.923206L261.873 1.92277L261.888 1.92321H261.902V0.923206ZM263.974 0.954859L263.941 1.95433L263.957 1.95486H263.974V0.954859ZM265.677 0.991787L265.623 1.99035L265.65 1.99179H265.677V0.991787ZM286.9 0.991787V1.99179H286.925L286.951 1.99047L286.9 0.991787ZM288.635 0.954859V1.95486H288.651L288.668 1.95433L288.635 0.954859ZM290.669 0.923206V1.92321H290.683L290.698 1.9228L290.669 0.923206ZM292.741 0.854625L292.709 -0.144918L292.7 -0.144542L292.741 0.854625ZM295.747 0.728014L296.731 0.549898L296.569 -0.340153L295.668 -0.268876L295.747 0.728014ZM296.713 6.06677L296.446 7.03034L297.981 7.45645L297.697 5.88865L296.713 6.06677ZM291.908 4.98002L292.089 3.99646L292.077 3.99442L291.908 4.98002ZM286.435 4.25201L286.321 5.24554L286.331 5.24657L286.435 4.25201ZM279.329 3.89328V2.89328H278.329V3.89328H279.329ZM279.393 40.2939L278.393 40.3242L278.394 40.3322L278.394 40.3402L279.393 40.2939ZM279.596 43.8865L278.598 43.9548L278.599 43.9655L278.6 43.9762L279.596 43.8865ZM279.895 46.4239L278.908 46.5865L278.911 46.6015L278.914 46.6164L279.895 46.4239ZM280.295 48.1385H281.295V47.996L281.256 47.8592L280.295 48.1385ZM280.295 48.2703V49.2703H281.295V48.2703H280.295ZM272.319 48.2703H271.319V49.2703H272.319V48.2703ZM272.319 48.1385L271.359 47.8592L271.319 47.996V48.1385H272.319ZM272.687 46.4239L273.674 46.5865L272.687 46.4239ZM272.986 43.8865L271.99 43.7972L271.99 43.802L272.986 43.8865ZM273.189 40.2939L274.188 40.3286L274.189 40.3242L273.189 40.2939ZM273.253 3.89328H274.253V2.89328H273.253V3.89328ZM212.213 48.2703V48.1385H210.213V48.2703H212.213ZM211.218 47.2703H211.213V49.2703H211.218V47.2703ZM220.364 47.2703H211.218V49.2703H220.364V47.2703ZM219.364 48.1385V48.2703H221.364V48.1385H219.364ZM218.886 47.7531C219.192 48.2327 219.44 48.5947 219.602 48.7862L221.126 47.4907C221.065 47.4184 220.885 47.1685 220.572 46.6774L218.886 47.7531ZM217.791 45.925C218.2 46.6461 218.566 47.2521 218.886 47.7531L220.572 46.6774C220.272 46.2078 219.924 45.632 219.531 44.9393L217.791 45.925ZM216.476 43.5288C216.948 44.4146 217.386 45.215 217.793 45.9278L219.53 44.9365C219.136 44.2461 218.708 43.4638 218.241 42.5876L216.476 43.5288ZM215.143 40.7017C215.569 41.6566 216.008 42.5933 216.464 43.5055L218.253 42.6109C217.812 41.7295 217.386 40.8197 216.969 39.886L215.143 40.7017ZM197.023 0.410149L215.144 40.704L216.968 39.8837L198.847 -0.410149L197.023 0.410149ZM195.265 1H197.935V-1H195.265V1ZM177.056 42.3232L196.175 0.415063L194.356 -0.415063L175.236 41.4931L177.056 42.3232ZM175.05 46.4137C175.667 45.3038 176.337 43.9357 177.059 42.3156L175.233 41.5007C174.525 43.088 173.881 44.3999 173.302 45.4423L175.05 46.4137ZM173.397 48.8313C173.889 48.3192 174.441 47.4882 175.046 46.4211L173.306 45.435C172.715 46.4781 172.264 47.1242 171.955 47.4456L173.397 48.8313ZM173.676 48.2703V48.1385H171.676V48.2703H173.676ZM179.483 47.2703H172.676V49.2703H179.483V47.2703ZM178.483 48.1385V48.2703H180.483V48.1385H178.483ZM178.377 48.0061C178.433 48.2414 178.513 48.4721 178.634 48.6671L180.332 47.6098C180.343 47.6281 180.35 47.6408 180.352 47.6457C180.354 47.6509 180.354 47.6508 180.352 47.6443C180.347 47.6308 180.336 47.5986 180.322 47.5428L178.377 48.0061ZM178.286 47.0517C178.286 47.3801 178.31 47.6996 178.373 47.9882L180.326 47.5607C180.304 47.4589 180.286 47.2931 180.286 47.0517H178.286ZM178.92 43.7495C178.498 44.8312 178.286 45.9303 178.286 47.0517H180.286C180.286 46.1896 180.447 45.3367 180.783 44.4771L178.92 43.7495ZM179.993 41.0666C179.661 41.8826 179.301 42.7781 178.921 43.7478L180.782 44.4788C181.16 43.5176 181.516 42.63 181.845 41.8212L179.993 41.0666ZM183.843 32.3359L180.004 41.0404L181.834 41.8474L185.673 33.1429L183.843 32.3359ZM189.163 31.6761C187.531 31.6761 186.052 31.6973 184.726 31.7399L184.79 33.7389C186.091 33.6971 187.548 33.6761 189.163 33.6761V31.6761ZM200.973 31.6761H189.163V33.6761H200.973V31.6761ZM205.977 31.74C204.717 31.6972 203.044 31.6761 200.973 31.6761V33.6761C203.034 33.6761 204.682 33.6972 205.91 33.7388L205.977 31.74ZM210.892 41.2973L206.855 32.329L205.032 33.1498L209.068 42.1181L210.892 41.2973ZM212.026 44.6041C211.83 43.6712 211.443 42.5727 210.898 41.3107L209.062 42.1047C209.584 43.3116 209.913 44.2705 210.069 45.0152L212.026 44.6041ZM212.347 47.0517C212.347 46.2741 212.231 45.4441 212.019 44.5734L210.076 45.0459C210.259 45.8001 210.347 46.4683 210.347 47.0517H212.347ZM212.31 47.7408C212.334 47.4984 212.347 47.2646 212.347 47.0517H210.347C210.347 47.187 210.338 47.3541 210.319 47.5443L212.31 47.7408ZM212.146 48.4982C212.232 48.2747 212.283 48.0146 212.31 47.7385L210.319 47.5466C210.312 47.6261 210.302 47.6851 210.293 47.7261C210.284 47.7683 210.278 47.7837 210.28 47.7787L212.146 48.4982ZM189.59 30.8379H193.562V28.8379H189.59V30.8379ZM185.986 30.8379H189.59V28.8379H185.986V30.8379ZM194.28 8.36728L185.07 29.4374L186.902 30.2384L196.112 9.16831L194.28 8.36728ZM205.484 29.2974L196.109 8.35913L194.283 9.17646L203.659 30.1147L205.484 29.2974ZM203.801 30.7233C204.073 30.7172 204.337 30.7113 204.593 30.7058L204.55 28.7063C204.293 28.7118 204.028 28.7177 203.756 28.7238L203.801 30.7233ZM201.321 30.7745C202.21 30.7589 203.037 30.7404 203.801 30.7233L203.756 28.7238C202.992 28.7409 202.169 28.7593 201.286 28.7748L201.321 30.7745ZM197.551 30.8061C198.859 30.7851 200.108 30.7746 201.304 30.7746V28.7746C200.097 28.7746 198.837 28.7852 197.518 28.8064L197.551 30.8061ZM193.578 30.8378C194.929 30.8168 196.248 30.8063 197.534 30.8063V28.8063C196.237 28.8063 194.908 28.8169 193.547 28.8381L193.578 30.8378ZM235.433 27.2266C234.963 27.2459 234.487 27.2553 234.006 27.2553V29.2553C234.513 29.2553 235.016 29.2453 235.514 29.2249L235.433 27.2266ZM234.006 27.2553C232.907 27.2553 231.777 27.1648 230.636 26.9736L230.306 28.9461C231.557 29.1558 232.798 29.2553 234.006 29.2553V27.2553ZM229.471 27.9599V35.3771H231.471V27.9599H229.471ZM229.471 35.3771C229.471 37.2517 229.493 38.9029 229.536 40.3242L231.535 40.2636C231.492 38.8678 231.471 37.2376 231.471 35.3771H229.471ZM229.536 40.3402C229.601 41.7289 229.671 42.9338 229.74 43.9548L231.736 43.8181C231.667 42.8133 231.598 41.6232 231.534 40.2476L229.536 40.3402ZM229.742 43.9762C229.834 44.9923 229.932 45.87 230.05 46.5865L232.024 46.2614C231.918 45.6168 231.824 44.7958 231.734 43.7967L229.742 43.9762ZM230.056 46.6164C230.192 47.3128 230.332 47.9195 230.477 48.4177L232.398 47.8592C232.276 47.4395 232.149 46.8961 232.018 46.2315L230.056 46.6164ZM230.438 48.1385V48.2703H232.438V48.1385H230.438ZM231.438 47.2703H223.429V49.2703H231.438V47.2703ZM224.429 48.2703V48.1385H222.429V48.2703H224.429ZM224.389 48.4177C224.538 47.9067 224.668 47.2893 224.784 46.5865L222.811 46.2614C222.702 46.9196 222.587 47.4522 222.469 47.8592L224.389 48.4177ZM224.779 46.6164C224.921 45.8893 225.037 45.0018 225.125 43.9709L223.132 43.802C223.048 44.7863 222.94 45.5975 222.816 46.2315L224.779 46.6164ZM225.124 43.9757C225.217 42.9372 225.282 41.7195 225.331 40.3286L223.332 40.2591C223.284 41.6326 223.221 42.8099 223.132 43.7972L225.124 43.9757ZM225.331 40.3242C225.374 38.9029 225.395 37.2517 225.395 35.3771H223.395C223.395 37.2376 223.374 38.8678 223.332 40.2636L225.331 40.3242ZM225.395 35.3771V13.9166H223.395V35.3771H225.395ZM225.395 13.9166C225.395 12.0368 225.374 10.4013 225.331 9.0008L223.332 9.06234C223.374 10.4367 223.395 12.0509 223.395 13.9166H225.395ZM225.331 9.00115C225.288 7.58334 225.217 6.35504 225.124 5.31808L223.132 5.49659C223.221 6.4854 223.289 7.67325 223.332 9.06199L225.331 9.00115ZM225.125 5.31989C225.032 4.26486 224.916 3.37575 224.78 2.65315L222.815 3.02323C222.935 3.6617 223.043 4.48184 223.132 5.49478L225.125 5.31989ZM224.784 2.67685C224.668 1.96604 224.538 1.3555 224.39 0.842074L222.468 1.39472C222.587 1.80977 222.702 2.33873 222.81 2.99954L224.784 2.67685ZM224.429 1.1184V0.991785H222.429V1.1184H224.429ZM223.334 1.98728C223.781 2.02983 224.254 2.07229 224.741 2.11464L224.914 0.122148C224.43 0.0800954 223.963 0.0381495 223.524 -0.00371016L223.334 1.98728ZM224.716 2.11212C225.169 2.16311 225.664 2.19609 226.191 2.21778L226.273 0.219476C225.775 0.198967 225.33 0.168641 224.94 0.124672L224.716 2.11212ZM226.232 2.21863H227.866V0.21863H226.232V2.21863ZM227.866 2.21863C228.796 2.21863 230.016 2.11179 231.5 1.91448L231.236 -0.068074C229.784 0.125002 228.665 0.21863 227.866 0.21863V2.21863ZM231.515 1.91232C232.938 1.7007 234.774 1.59085 237.044 1.59085V-0.409149C234.721 -0.409149 232.777 -0.297429 231.221 -0.0659132L231.515 1.91232ZM237.044 1.59085C239.088 1.59085 240.955 1.86856 242.647 2.40409L243.25 0.497404C241.343 -0.106562 239.27 -0.409149 237.044 -0.409149V1.59085ZM242.651 2.40536C244.365 2.94026 245.828 3.72091 247.055 4.72906L248.325 3.18411C246.882 1.99767 245.184 1.10073 243.246 0.496141L242.651 2.40536ZM247.055 4.72906C248.269 5.7274 249.212 6.95989 249.882 8.42838L251.701 7.59844C250.908 5.85945 249.78 4.38036 248.325 3.18411L247.055 4.72906ZM249.89 8.44543C250.573 9.87257 250.924 11.5198 250.924 13.4207H252.924C252.924 11.2701 252.526 9.31951 251.694 7.58138L249.89 8.44543ZM250.924 13.4207C250.924 14.9127 250.722 16.2839 250.333 17.5403L252.243 18.1323C252.698 16.6665 252.924 15.094 252.924 13.4207H250.924ZM250.33 17.55C249.958 18.7966 249.425 19.9241 248.73 20.929L250.376 22.0659C251.198 20.8763 251.818 19.5559 252.246 18.1226L250.33 17.55ZM248.723 20.94C248.04 21.957 247.22 22.8647 246.251 23.6561L247.516 25.2051C248.64 24.2872 249.592 23.2325 250.383 22.0549L248.723 20.94ZM246.258 23.6504C246.258 23.6505 246.258 23.6505 246.258 23.6505C246.258 23.6505 246.258 23.6505 246.258 23.6505C246.258 23.6505 246.258 23.6505 246.258 23.6505C246.258 23.6505 246.258 23.6505 246.258 23.6505C246.258 23.6505 246.258 23.6505 246.258 23.6505C246.258 23.6505 246.258 23.6505 246.258 23.6505C246.258 23.6505 246.258 23.6505 246.258 23.6505C246.258 23.6505 246.258 23.6505 246.258 23.6505C246.258 23.6505 246.258 23.6505 246.258 23.6505C246.258 23.6505 246.258 23.6505 246.258 23.6505C246.258 23.6505 246.258 23.6505 246.258 23.6505C246.258 23.6505 246.258 23.6505 246.258 23.6505C246.258 23.6505 246.258 23.6505 246.258 23.6505C246.258 23.6505 246.258 23.6505 246.258 23.6505C246.258 23.6505 246.258 23.6505 246.258 23.6505C246.258 23.6505 246.258 23.6505 246.258 23.6505C246.258 23.6505 246.258 23.6505 246.258 23.6505C246.258 23.6505 246.258 23.6505 246.258 23.6506C246.258 23.6506 246.258 23.6506 246.258 23.6506C246.258 23.6506 246.258 23.6506 246.258 23.6506C246.258 23.6506 246.258 23.6506 246.258 23.6506C246.258 23.6506 246.258 23.6506 246.258 23.6506C246.258 23.6506 246.258 23.6506 246.258 23.6506C246.258 23.6506 246.258 23.6506 246.258 23.6506C246.258 23.6506 246.258 23.6506 246.258 23.6506C246.258 23.6506 246.258 23.6506 246.258 23.6506C246.258 23.6506 246.258 23.6506 246.258 23.6506C246.258 23.6506 246.258 23.6506 246.258 23.6506C246.258 23.6506 246.258 23.6506 246.258 23.6506C246.258 23.6506 246.258 23.6506 246.258 23.6506C246.258 23.6506 246.258 23.6506 246.258 23.6506C246.258 23.6506 246.258 23.6506 246.258 23.6506C246.258 23.6506 246.258 23.6506 246.258 23.6506C246.258 23.6506 246.258 23.6506 246.258 23.6506C246.258 23.6506 246.258 23.6506 246.258 23.6506C246.258 23.6507 246.258 23.6507 246.258 23.6507C246.258 23.6507 246.258 23.6507 246.258 23.6507C246.258 23.6507 246.258 23.6507 246.258 23.6507C246.258 23.6507 246.258 23.6507 246.258 23.6507C246.258 23.6507 246.258 23.6507 246.258 23.6507C246.258 23.6507 246.258 23.6507 246.258 23.6507C246.258 23.6507 246.258 23.6507 246.258 23.6507C246.258 23.6507 246.258 23.6507 246.258 23.6507C246.258 23.6507 246.258 23.6507 246.258 23.6507C246.258 23.6507 246.258 23.6507 246.258 23.6507C246.258 23.6507 246.258 23.6507 246.258 23.6507C246.258 23.6507 246.258 23.6507 246.258 23.6507C246.258 23.6507 246.258 23.6507 246.258 23.6507C246.258 23.6507 246.258 23.6507 246.258 23.6507C246.258 23.6507 246.258 23.6507 246.258 23.6507C246.257 23.6507 246.257 23.6507 246.257 23.6507C246.257 23.6507 246.257 23.6507 246.257 23.6507C246.257 23.6507 246.257 23.6507 246.257 23.6508C246.257 23.6508 246.257 23.6508 246.257 23.6508C246.257 23.6508 246.257 23.6508 246.257 23.6508C246.257 23.6508 246.257 23.6508 246.257 23.6508C246.257 23.6508 246.257 23.6508 246.257 23.6508C246.257 23.6508 246.257 23.6508 246.257 23.6508C246.257 23.6508 246.257 23.6508 246.257 23.6508C246.257 23.6508 246.257 23.6508 246.257 23.6508C246.257 23.6508 246.257 23.6508 246.257 23.6508C246.257 23.6508 246.257 23.6508 246.257 23.6508C246.257 23.6508 246.257 23.6508 246.257 23.6508C246.257 23.6508 246.257 23.6508 246.257 23.6508C246.257 23.6508 246.257 23.6508 246.257 23.6508C246.257 23.6508 246.257 23.6508 246.257 23.6508C246.257 23.6508 246.257 23.6508 246.257 23.6508C246.257 23.6508 246.257 23.6508 246.257 23.6508C246.257 23.6508 246.257 23.6508 246.257 23.6508C246.257 23.6508 246.257 23.6508 246.257 23.6508C246.257 23.6509 246.257 23.6509 246.257 23.6509C246.257 23.6509 246.257 23.6509 246.257 23.6509C246.257 23.6509 246.257 23.6509 246.257 23.6509C246.257 23.6509 246.257 23.6509 246.257 23.6509C246.257 23.6509 246.257 23.6509 246.257 23.6509C246.257 23.6509 246.257 23.6509 246.257 23.6509C246.257 23.6509 246.257 23.6509 246.257 23.6509C246.257 23.6509 246.257 23.6509 246.257 23.6509C246.257 23.6509 246.257 23.6509 246.257 23.6509C246.257 23.6509 246.257 23.6509 246.257 23.6509C246.257 23.6509 246.257 23.6509 246.257 23.6509C246.257 23.6509 246.257 23.6509 246.257 23.6509C246.257 23.6509 246.257 23.6509 246.257 23.6509C246.257 23.6509 246.257 23.6509 246.257 23.6509C246.257 23.6509 246.257 23.6509 246.257 23.6509C246.257 23.6509 246.257 23.6509 246.257 23.6509C246.257 23.6509 246.257 23.6509 246.257 23.6509C246.257 23.6509 246.257 23.6509 246.257 23.651C246.257 23.651 246.257 23.651 246.257 23.651C246.257 23.651 246.257 23.651 246.257 23.651C246.257 23.651 246.257 23.651 246.257 23.651C246.257 23.651 246.257 23.651 246.257 23.651C246.257 23.651 246.257 23.651 246.257 23.651C246.257 23.651 246.257 23.651 246.257 23.651C246.257 23.651 246.257 23.651 246.257 23.651C246.257 23.651 246.257 23.651 246.257 23.651C246.257 23.651 246.257 23.651 246.257 23.651C246.257 23.651 246.257 23.651 246.257 23.651C246.257 23.651 246.257 23.651 246.257 23.651C246.257 23.651 246.257 23.651 246.257 23.651C246.257 23.651 246.257 23.651 246.257 23.651C246.257 23.651 246.257 23.651 246.257 23.651C246.257 23.651 246.257 23.651 246.257 23.651C246.257 23.651 246.257 23.651 246.257 23.651C246.257 23.651 246.257 23.651 246.257 23.651C246.257 23.651 246.257 23.6511 246.257 23.6511C246.257 23.6511 246.257 23.6511 246.257 23.6511C246.257 23.6511 246.257 23.6511 246.257 23.6511C246.257 23.6511 246.257 23.6511 246.257 23.6511C246.257 23.6511 246.257 23.6511 246.257 23.6511C246.257 23.6511 246.257 23.6511 246.257 23.6511C246.257 23.6511 246.257 23.6511 246.257 23.6511C246.257 23.6511 246.257 23.6511 246.257 23.6511C246.257 23.6511 246.257 23.6511 246.257 23.6511C246.257 23.6511 246.257 23.6511 246.257 23.6511C246.257 23.6511 246.257 23.6511 246.257 23.6511C246.257 23.6511 246.257 23.6511 246.257 23.6511C246.257 23.6511 246.257 23.6511 246.257 23.6511C246.257 23.6511 246.257 23.6511 246.257 23.6511C246.257 23.6511 246.257 23.6511 246.257 23.6511C246.257 23.6511 246.257 23.6511 246.257 23.6511C246.257 23.6511 246.257 23.6511 246.257 23.6511C246.257 23.6511 246.257 23.6511 246.257 23.6511C246.257 23.6512 246.257 23.6512 246.257 23.6512C246.257 23.6512 246.257 23.6512 246.257 23.6512C246.257 23.6512 246.257 23.6512 246.257 23.6512C246.257 23.6512 246.257 23.6512 246.257 23.6512C246.257 23.6512 246.257 23.6512 246.257 23.6512C246.257 23.6512 246.257 23.6512 246.257 23.6512C246.257 23.6512 246.257 23.6512 246.257 23.6512C246.257 23.6512 246.257 23.6512 246.257 23.6512C246.257 23.6512 246.257 23.6512 246.257 23.6512C246.257 23.6512 246.257 23.6512 246.257 23.6512C246.257 23.6512 246.257 23.6512 246.257 23.6512C246.257 23.6512 246.257 23.6512 246.257 23.6512C246.257 23.6512 246.257 23.6512 246.257 23.6512C246.257 23.6512 246.257 23.6512 246.257 23.6512C246.257 23.6512 246.257 23.6512 246.257 23.6512C246.257 23.6512 246.257 23.6512 246.257 23.6512C246.257 23.6512 246.257 23.6512 246.257 23.6512C246.257 23.6512 246.257 23.6513 246.257 23.6513C246.257 23.6513 246.257 23.6513 246.257 23.6513C246.257 23.6513 246.257 23.6513 246.257 23.6513C246.257 23.6513 246.257 23.6513 246.257 23.6513C246.257 23.6513 246.257 23.6513 246.257 23.6513C246.257 23.6513 246.257 23.6513 246.257 23.6513C246.257 23.6513 246.257 23.6513 246.257 23.6513C246.257 23.6513 246.257 23.6513 246.257 23.6513C246.257 23.6513 246.257 23.6513 246.257 23.6513C246.257 23.6513 246.257 23.6513 246.257 23.6513C246.257 23.6513 246.257 23.6513 246.257 23.6513C246.257 23.6513 246.257 23.6513 246.257 23.6513C246.257 23.6513 246.257 23.6513 246.257 23.6513C246.257 23.6513 246.257 23.6513 246.257 23.6513C246.257 23.6513 246.257 23.6513 246.257 23.6513C246.257 23.6513 246.257 23.6513 246.257 23.6513C246.257 23.6513 246.257 23.6513 246.257 23.6513C246.257 23.6513 246.257 23.6513 246.257 23.6514C246.257 23.6514 246.257 23.6514 246.257 23.6514C246.257 23.6514 246.257 23.6514 246.257 23.6514C246.257 23.6514 246.257 23.6514 246.257 23.6514C246.257 23.6514 246.257 23.6514 246.257 23.6514C246.257 23.6514 246.257 23.6514 246.257 23.6514C246.257 23.6514 246.257 23.6514 246.257 23.6514C246.257 23.6514 246.257 23.6514 246.257 23.6514C246.257 23.6514 246.257 23.6514 246.257 23.6514C246.257 23.6514 246.257 23.6514 246.257 23.6514C246.257 23.6514 246.257 23.6514 246.257 23.6514C246.257 23.6514 246.257 23.6514 246.257 23.6514C246.257 23.6514 246.257 23.6514 246.257 23.6514C246.257 23.6514 246.257 23.6514 246.257 23.6514C246.257 23.6514 246.257 23.6514 246.257 23.6514C246.257 23.6514 246.257 23.6514 246.257 23.6514C246.257 23.6514 246.257 23.6514 246.257 23.6514C246.257 23.6514 246.257 23.6514 246.257 23.6514C246.257 23.6514 246.257 23.6515 246.257 23.6515C246.257 23.6515 246.257 23.6515 246.257 23.6515C246.257 23.6515 246.257 23.6515 246.257 23.6515C246.257 23.6515 246.257 23.6515 246.257 23.6515C246.257 23.6515 246.257 23.6515 246.257 23.6515C246.257 23.6515 246.257 23.6515 246.257 23.6515C246.257 23.6515 246.257 23.6515 246.257 23.6515C246.257 23.6515 246.257 23.6515 246.257 23.6515C246.257 23.6515 246.257 23.6515 246.257 23.6515C246.257 23.6515 246.257 23.6515 246.257 23.6515C246.257 23.6515 246.257 23.6515 246.257 23.6515C246.257 23.6515 246.257 23.6515 246.257 23.6515C246.257 23.6515 246.257 23.6515 246.257 23.6515C246.257 23.6515 246.257 23.6515 246.257 23.6515C246.257 23.6515 246.257 23.6515 246.257 23.6515C246.257 23.6515 246.257 23.6515 246.257 23.6515C246.257 23.6515 246.257 23.6515 246.257 23.6515C246.256 23.6515 246.256 23.6515 246.256 23.6515C246.256 23.6516 246.256 23.6516 246.256 23.6516C246.256 23.6516 246.256 23.6516 246.256 23.6516C246.256 23.6516 246.256 23.6516 246.256 23.6516C246.256 23.6516 246.256 23.6516 246.256 23.6516C246.256 23.6516 246.256 23.6516 246.256 23.6516C246.256 23.6516 246.256 23.6516 246.256 23.6516C246.256 23.6516 246.256 23.6516 246.256 23.6516C246.256 23.6516 246.256 23.6516 246.256 23.6516C246.256 23.6516 246.256 23.6516 246.256 23.6516C246.256 23.6516 246.256 23.6516 246.256 23.6516C246.256 23.6516 246.256 23.6516 246.256 23.6516C246.256 23.6516 246.256 23.6516 246.256 23.6516C246.256 23.6516 246.256 23.6516 246.256 23.6516C246.256 23.6516 246.256 23.6516 246.256 23.6516C246.256 23.6516 246.256 23.6516 246.256 23.6516C246.256 23.6516 246.256 23.6516 246.256 23.6516C246.256 23.6516 246.256 23.6516 246.256 23.6516C246.256 23.6516 246.256 23.6516 246.256 23.6517C246.256 23.6517 246.256 23.6517 246.256 23.6517C246.256 23.6517 246.256 23.6517 246.256 23.6517C246.256 23.6517 246.256 23.6517 246.256 23.6517C246.256 23.6517 246.256 23.6517 246.256 23.6517C246.256 23.6517 246.256 23.6517 246.256 23.6517C246.256 23.6517 246.256 23.6517 246.256 23.6517C246.256 23.6517 246.256 23.6517 246.256 23.6517C246.256 23.6517 246.256 23.6517 246.256 23.6517C246.256 23.6517 246.256 23.6517 246.256 23.6517C246.256 23.6517 246.256 23.6517 246.256 23.6517C246.256 23.6517 246.256 23.6517 246.256 23.6517C246.256 23.6517 246.256 23.6517 246.256 23.6517C246.256 23.6517 246.256 23.6517 246.256 23.6517C246.256 23.6517 246.256 23.6517 246.256 23.6517C246.256 23.6517 246.256 23.6517 246.256 23.6517C246.256 23.6517 246.256 23.6517 246.256 23.6517C246.256 23.6517 246.256 23.6517 246.256 23.6517C246.256 23.6518 246.256 23.6518 246.256 23.6518C246.256 23.6518 246.256 23.6518 246.256 23.6518C246.256 23.6518 246.256 23.6518 246.256 23.6518C246.256 23.6518 246.256 23.6518 246.256 23.6518C246.256 23.6518 246.256 23.6518 246.256 23.6518C246.256 23.6518 246.256 23.6518 246.256 23.6518C246.256 23.6518 246.256 23.6518 246.256 23.6518C246.256 23.6518 246.256 23.6518 246.256 23.6518C246.256 23.6518 246.256 23.6518 246.256 23.6518C246.256 23.6518 246.256 23.6518 246.256 23.6518C246.256 23.6518 246.256 23.6518 246.256 23.6518C246.256 23.6518 246.256 23.6518 246.256 23.6518C246.256 23.6518 246.256 23.6518 246.256 23.6518C246.256 23.6518 246.256 23.6518 246.256 23.6518C246.256 23.6518 246.256 23.6518 246.256 23.6518C246.256 23.6518 246.256 23.6518 246.256 23.6518C246.256 23.6518 246.256 23.6518 246.256 23.6518C246.256 23.6518 246.256 23.6518 246.256 23.6519C246.256 23.6519 246.256 23.6519 246.256 23.6519C246.256 23.6519 246.256 23.6519 246.256 23.6519C246.256 23.6519 246.256 23.6519 246.256 23.6519C246.256 23.6519 246.256 23.6519 246.256 23.6519C246.256 23.6519 246.256 23.6519 246.256 23.6519C246.256 23.6519 246.256 23.6519 246.256 23.6519C246.256 23.6519 246.256 23.6519 246.256 23.6519C246.256 23.6519 246.256 23.6519 246.256 23.6519C246.256 23.6519 246.256 23.6519 246.256 23.6519C246.256 23.6519 246.256 23.6519 246.256 23.6519C246.256 23.6519 246.256 23.6519 246.256 23.6519C246.256 23.6519 246.256 23.6519 246.256 23.6519C246.256 23.6519 246.256 23.6519 246.256 23.6519C246.256 23.6519 246.256 23.6519 246.256 23.6519C246.256 23.6519 246.256 23.6519 246.256 23.6519C246.256 23.6519 246.256 23.6519 246.256 23.6519C246.256 23.6519 246.256 23.6519 246.256 23.6519C246.256 23.6519 246.256 23.652 246.256 23.652C246.256 23.652 246.256 23.652 246.256 23.652C246.256 23.652 246.256 23.652 246.256 23.652C246.256 23.652 246.256 23.652 246.256 23.652C246.256 23.652 246.256 23.652 246.256 23.652C246.256 23.652 246.256 23.652 246.256 23.652C246.256 23.652 246.256 23.652 246.256 23.652C246.256 23.652 246.256 23.652 246.256 23.652C246.256 23.652 246.256 23.652 246.256 23.652C246.256 23.652 246.256 23.652 246.256 23.652C246.256 23.652 246.256 23.652 246.256 23.652C246.256 23.652 246.256 23.652 246.256 23.652C246.256 23.652 246.256 23.652 246.256 23.652C246.256 23.652 246.256 23.652 246.256 23.652C246.256 23.652 246.256 23.652 246.256 23.652C246.256 23.652 246.256 23.652 246.256 23.652C246.256 23.652 246.256 23.652 246.256 23.652C246.256 23.652 246.256 23.652 246.256 23.6521C246.256 23.6521 246.256 23.6521 246.256 23.6521C246.256 23.6521 246.256 23.6521 246.256 23.6521C246.256 23.6521 246.256 23.6521 246.256 23.6521C246.256 23.6521 246.256 23.6521 246.256 23.6521C246.256 23.6521 246.256 23.6521 246.256 23.6521C246.256 23.6521 246.256 23.6521 246.256 23.6521C246.256 23.6521 246.256 23.6521 246.256 23.6521C246.256 23.6521 246.256 23.6521 246.256 23.6521C246.256 23.6521 246.256 23.6521 246.256 23.6521C246.256 23.6521 246.256 23.6521 246.256 23.6521C246.256 23.6521 246.256 23.6521 246.256 23.6521C246.256 23.6521 246.256 23.6521 246.256 23.6521C246.256 23.6521 246.256 23.6521 246.256 23.6521C246.256 23.6521 246.256 23.6521 246.256 23.6521C246.256 23.6521 246.256 23.6521 246.256 23.6521C246.256 23.6521 246.256 23.6521 246.256 23.6521C246.256 23.6521 246.256 23.6521 246.256 23.6521C246.256 23.6521 246.256 23.6522 246.256 23.6522C246.256 23.6522 246.256 23.6522 246.256 23.6522C246.256 23.6522 246.256 23.6522 246.256 23.6522C246.256 23.6522 246.256 23.6522 246.256 23.6522C246.256 23.6522 246.256 23.6522 246.256 23.6522C246.256 23.6522 246.256 23.6522 246.256 23.6522C246.256 23.6522 246.256 23.6522 246.256 23.6522C246.256 23.6522 246.256 23.6522 246.256 23.6522C246.256 23.6522 246.256 23.6522 246.256 23.6522C246.256 23.6522 246.256 23.6522 246.256 23.6522C246.256 23.6522 246.256 23.6522 246.256 23.6522C246.256 23.6522 246.256 23.6522 246.256 23.6522C246.256 23.6522 246.256 23.6522 246.256 23.6522C246.256 23.6522 246.256 23.6522 246.256 23.6522C246.256 23.6522 246.256 23.6522 246.256 23.6522C246.256 23.6522 246.256 23.6522 246.256 23.6522C246.256 23.6522 246.256 23.6522 246.256 23.6522C246.256 23.6522 246.256 23.6522 246.256 23.6523C246.256 23.6523 246.256 23.6523 246.256 23.6523C246.256 23.6523 246.256 23.6523 246.256 23.6523C246.256 23.6523 246.256 23.6523 246.256 23.6523C246.256 23.6523 246.256 23.6523 246.256 23.6523C246.256 23.6523 246.256 23.6523 246.256 23.6523C246.256 23.6523 246.256 23.6523 246.256 23.6523C246.256 23.6523 246.256 23.6523 246.256 23.6523C246.256 23.6523 246.256 23.6523 246.256 23.6523C246.256 23.6523 246.256 23.6523 246.256 23.6523C246.256 23.6523 246.256 23.6523 246.256 23.6523C246.256 23.6523 246.256 23.6523 246.256 23.6523C246.256 23.6523 246.256 23.6523 246.256 23.6523C246.256 23.6523 246.256 23.6523 246.256 23.6523C246.256 23.6523 246.256 23.6523 246.256 23.6523C246.256 23.6523 246.256 23.6523 246.256 23.6523C246.256 23.6523 246.256 23.6523 246.256 23.6523C246.256 23.6523 246.255 23.6523 246.255 23.6523C246.255 23.6523 246.255 23.6524 246.255 23.6524C246.255 23.6524 246.255 23.6524 246.255 23.6524C246.255 23.6524 246.255 23.6524 246.255 23.6524C246.255 23.6524 246.255 23.6524 246.255 23.6524C246.255 23.6524 246.255 23.6524 246.255 23.6524C246.255 23.6524 246.255 23.6524 246.255 23.6524C246.255 23.6524 246.255 23.6524 246.255 23.6524C246.255 23.6524 246.255 23.6524 246.255 23.6524C246.255 23.6524 246.255 23.6524 246.255 23.6524C246.255 23.6524 246.255 23.6524 246.255 23.6524C246.255 23.6524 246.255 23.6524 246.255 23.6524C246.255 23.6524 246.255 23.6524 246.255 23.6524C246.255 23.6524 246.255 23.6524 246.255 23.6524C246.255 23.6524 246.255 23.6524 246.255 23.6524C246.255 23.6524 246.255 23.6524 246.255 23.6524C246.255 23.6524 246.255 23.6524 246.255 23.6524C246.255 23.6524 246.255 23.6524 246.255 23.6524C246.255 23.6524 246.255 23.6524 246.255 23.6524C246.255 23.6525 246.255 23.6525 246.255 23.6525C246.255 23.6525 246.255 23.6525 246.255 23.6525C246.255 23.6525 246.255 23.6525 246.255 23.6525C246.255 23.6525 246.255 23.6525 246.255 23.6525C246.255 23.6525 246.255 23.6525 246.255 23.6525C246.255 23.6525 246.255 23.6525 246.255 23.6525C246.255 23.6525 246.255 23.6525 246.255 23.6525C246.255 23.6525 246.255 23.6525 246.255 23.6525C246.255 23.6525 246.255 23.6525 246.255 23.6525C246.255 23.6525 246.255 23.6525 246.255 23.6525C246.255 23.6525 246.255 23.6525 246.255 23.6525C246.255 23.6525 246.255 23.6525 246.255 23.6525C246.255 23.6525 246.255 23.6525 246.255 23.6525C246.255 23.6525 246.255 23.6525 246.255 23.6525C246.255 23.6525 246.255 23.6525 246.255 23.6525C246.255 23.6525 246.255 23.6525 246.255 23.6525C246.255 23.6525 246.255 23.6525 246.255 23.6525C246.255 23.6525 246.255 23.6525 246.255 23.6526C246.255 23.6526 246.255 23.6526 246.255 23.6526C246.255 23.6526 246.255 23.6526 246.255 23.6526C246.255 23.6526 246.255 23.6526 246.255 23.6526C246.255 23.6526 246.255 23.6526 246.255 23.6526C246.255 23.6526 246.255 23.6526 246.255 23.6526C246.255 23.6526 246.255 23.6526 246.255 23.6526C246.255 23.6526 246.255 23.6526 246.255 23.6526C246.255 23.6526 246.255 23.6526 246.255 23.6526C246.255 23.6526 246.255 23.6526 246.255 23.6526C246.255 23.6526 246.255 23.6526 246.255 23.6526C246.255 23.6526 246.255 23.6526 246.255 23.6526C246.255 23.6526 246.255 23.6526 246.255 23.6526C246.255 23.6526 246.255 23.6526 246.255 23.6526C246.255 23.6526 246.255 23.6526 246.255 23.6526C246.255 23.6526 246.255 23.6526 246.255 23.6526C246.255 23.6526 246.255 23.6526 246.255 23.6526C246.255 23.6526 246.255 23.6526 246.255 23.6526C246.255 23.6527 246.255 23.6527 246.255 23.6527C246.255 23.6527 246.255 23.6527 246.255 23.6527C246.255 23.6527 246.255 23.6527 246.255 23.6527C246.255 23.6527 246.255 23.6527 246.255 23.6527C246.255 23.6527 246.255 23.6527 246.255 23.6527C246.255 23.6527 246.255 23.6527 246.255 23.6527C246.255 23.6527 246.255 23.6527 246.255 23.6527C246.255 23.6527 246.255 23.6527 246.255 23.6527C246.255 23.6527 246.255 23.6527 246.255 23.6527C246.255 23.6527 246.255 23.6527 246.255 23.6527C246.255 23.6527 246.255 23.6527 246.255 23.6527C246.255 23.6527 246.255 23.6527 246.255 23.6527C246.255 23.6527 246.255 23.6527 246.255 23.6527C246.255 23.6527 246.255 23.6527 246.255 23.6527C246.255 23.6527 246.255 23.6527 246.255 23.6527C246.255 23.6527 246.255 23.6527 246.255 23.6527C246.255 23.6527 246.255 23.6527 246.255 23.6527C246.255 23.6527 246.255 23.6528 246.255 23.6528C246.255 23.6528 246.255 23.6528 246.255 23.6528C246.255 23.6528 246.255 23.6528 246.255 23.6528C246.255 23.6528 246.255 23.6528 246.255 23.6528C246.255 23.6528 246.255 23.6528 246.255 23.6528C246.255 23.6528 246.255 23.6528 246.255 23.6528C246.255 23.6528 246.255 23.6528 246.255 23.6528C246.255 23.6528 246.255 23.6528 246.255 23.6528C246.255 23.6528 246.255 23.6528 246.255 23.6528C246.255 23.6528 246.255 23.6528 246.255 23.6528C246.255 23.6528 246.255 23.6528 246.255 23.6528C246.255 23.6528 246.255 23.6528 246.255 23.6528C246.255 23.6528 246.255 23.6528 246.255 23.6528C246.255 23.6528 246.255 23.6528 246.255 23.6528C246.255 23.6528 246.255 23.6528 246.255 23.6528C246.255 23.6528 246.255 23.6528 246.255 23.6528C246.255 23.6528 246.255 23.6528 246.255 23.6528C246.255 23.6528 246.255 23.6528 246.255 23.6528C246.255 23.6529 246.255 23.6529 246.255 23.6529C246.255 23.6529 246.255 23.6529 246.255 23.6529C246.255 23.6529 246.255 23.6529 246.255 23.6529C246.255 23.6529 246.255 23.6529 246.255 23.6529C246.255 23.6529 246.255 23.6529 246.255 23.6529C246.255 23.6529 246.255 23.6529 246.255 23.6529C246.255 23.6529 246.255 23.6529 246.255 23.6529C246.255 23.6529 246.255 23.6529 246.255 23.6529C246.255 23.6529 246.255 23.6529 246.255 23.6529C246.255 23.6529 246.255 23.6529 246.255 23.6529C246.255 23.6529 246.255 23.6529 246.255 23.6529C246.255 23.6529 246.255 23.6529 246.255 23.6529C246.255 23.6529 246.255 23.6529 246.255 23.6529C246.255 23.6529 246.255 23.6529 246.255 23.6529C246.255 23.6529 246.255 23.6529 246.255 23.6529C246.255 23.6529 246.255 23.6529 246.255 23.6529C246.255 23.6529 246.255 23.6529 246.255 23.6529C246.255 23.6529 246.255 23.6529 246.255 23.653C246.255 23.653 246.255 23.653 246.255 23.653C246.255 23.653 246.255 23.653 246.255 23.653C246.255 23.653 246.255 23.653 246.255 23.653C246.255 23.653 246.255 23.653 246.255 23.653C246.255 23.653 246.255 23.653 246.255 23.653C246.255 23.653 246.255 23.653 246.255 23.653C246.255 23.653 246.255 23.653 246.255 23.653C246.255 23.653 246.255 23.653 246.255 23.653C246.255 23.653 246.255 23.653 246.255 23.653C246.255 23.653 246.255 23.653 246.255 23.653C246.255 23.653 246.255 23.653 246.255 23.653C246.255 23.653 246.255 23.653 246.255 23.653C246.255 23.653 246.255 23.653 246.255 23.653C246.255 23.653 246.255 23.653 246.255 23.653C246.255 23.653 246.255 23.653 246.255 23.653C246.255 23.653 246.255 23.653 246.255 23.653C246.255 23.653 246.255 23.653 246.255 23.653C246.255 23.653 246.255 23.6531 246.255 23.6531C246.255 23.6531 246.255 23.6531 246.255 23.6531C246.255 23.6531 246.255 23.6531 246.255 23.6531C246.255 23.6531 246.255 23.6531 246.255 23.6531C246.255 23.6531 246.255 23.6531 246.255 23.6531C246.255 23.6531 246.255 23.6531 246.255 23.6531C246.255 23.6531 246.255 23.6531 246.255 23.6531C246.255 23.6531 246.255 23.6531 246.255 23.6531C246.255 23.6531 246.255 23.6531 246.255 23.6531C246.255 23.6531 246.255 23.6531 246.255 23.6531C246.255 23.6531 246.255 23.6531 246.255 23.6531C246.255 23.6531 246.255 23.6531 246.255 23.6531C246.255 23.6531 246.255 23.6531 246.255 23.6531C246.255 23.6531 246.255 23.6531 246.255 23.6531C246.255 23.6531 246.255 23.6531 246.255 23.6531C246.255 23.6531 246.255 23.6531 246.255 23.6531C246.255 23.6531 246.255 23.6531 246.255 23.6531C246.254 23.6531 246.254 23.6531 246.254 23.6532C246.254 23.6532 246.254 23.6532 246.254 23.6532C246.254 23.6532 246.254 23.6532 246.254 23.6532C246.254 23.6532 246.254 23.6532 246.254 23.6532C246.254 23.6532 246.254 23.6532 246.254 23.6532C246.254 23.6532 246.254 23.6532 246.254 23.6532C246.254 23.6532 246.254 23.6532 246.254 23.6532C246.254 23.6532 246.254 23.6532 246.254 23.6532C246.254 23.6532 246.254 23.6532 246.254 23.6532C246.254 23.6532 246.254 23.6532 246.254 23.6532C246.254 23.6532 246.254 23.6532 246.254 23.6532C246.254 23.6532 246.254 23.6532 246.254 23.6532C246.254 23.6532 246.254 23.6532 246.254 23.6532C246.254 23.6532 246.254 23.6532 246.254 23.6532C246.254 23.6532 246.254 23.6532 246.254 23.6532C246.254 23.6532 246.254 23.6532 246.254 23.6532C246.254 23.6532 246.254 23.6532 246.254 23.6532C246.254 23.6532 246.254 23.6532 246.254 23.6532C246.254 23.6532 246.254 23.6533 246.254 23.6533C246.254 23.6533 246.254 23.6533 246.254 23.6533C246.254 23.6533 246.254 23.6533 246.254 23.6533C246.254 23.6533 246.254 23.6533 246.254 23.6533C246.254 23.6533 246.254 23.6533 246.254 23.6533C246.254 23.6533 246.254 23.6533 246.254 23.6533C246.254 23.6533 246.254 23.6533 246.254 23.6533C246.254 23.6533 246.254 23.6533 246.254 23.6533C246.254 23.6533 246.254 23.6533 246.254 23.6533C246.254 23.6533 246.254 23.6533 246.254 23.6533C246.254 23.6533 246.254 23.6533 246.254 23.6533C246.254 23.6533 246.254 23.6533 246.254 23.6533C246.254 23.6533 246.254 23.6533 246.254 23.6533C246.254 23.6533 246.254 23.6533 246.254 23.6533C246.254 23.6533 246.254 23.6533 246.254 23.6533C246.254 23.6533 246.254 23.6533 246.254 23.6533C246.254 23.6533 246.254 23.6533 246.254 23.6533C246.254 23.6533 246.254 23.6533 246.254 23.6534C246.254 23.6534 246.254 23.6534 246.254 23.6534C246.254 23.6534 246.254 23.6534 246.254 23.6534C246.254 23.6534 246.254 23.6534 246.254 23.6534L247.505 25.2137C247.505 25.2137 247.505 25.2137 247.505 25.2137C247.505 25.2137 247.505 25.2137 247.505 25.2137C247.505 25.2137 247.505 25.2137 247.505 25.2136C247.505 25.2136 247.505 25.2136 247.505 25.2136C247.505 25.2136 247.505 25.2136 247.505 25.2136C247.505 25.2136 247.505 25.2136 247.505 25.2136C247.505 25.2136 247.505 25.2136 247.505 25.2136C247.505 25.2136 247.505 25.2136 247.505 25.2136C247.505 25.2136 247.505 25.2136 247.505 25.2136C247.505 25.2136 247.505 25.2136 247.505 25.2136C247.505 25.2136 247.505 25.2136 247.505 25.2136C247.505 25.2136 247.505 25.2136 247.505 25.2136C247.505 25.2136 247.505 25.2136 247.506 25.2136C247.506 25.2136 247.506 25.2136 247.506 25.2136C247.506 25.2136 247.506 25.2136 247.506 25.2136C247.506 25.2136 247.506 25.2136 247.506 25.2136C247.506 25.2136 247.506 25.2136 247.506 25.2136C247.506 25.2136 247.506 25.2136 247.506 25.2136C247.506 25.2136 247.506 25.2136 247.506 25.2136C247.506 25.2136 247.506 25.2136 247.506 25.2136C247.506 25.2136 247.506 25.2136 247.506 25.2135C247.506 25.2135 247.506 25.2135 247.506 25.2135C247.506 25.2135 247.506 25.2135 247.506 25.2135C247.506 25.2135 247.506 25.2135 247.506 25.2135C247.506 25.2135 247.506 25.2135 247.506 25.2135C247.506 25.2135 247.506 25.2135 247.506 25.2135C247.506 25.2135 247.506 25.2135 247.506 25.2135C247.506 25.2135 247.506 25.2135 247.506 25.2135C247.506 25.2135 247.506 25.2135 247.506 25.2135C247.506 25.2135 247.506 25.2135 247.506 25.2135C247.506 25.2135 247.506 25.2135 247.506 25.2135C247.506 25.2135 247.506 25.2135 247.506 25.2135C247.506 25.2135 247.506 25.2135 247.506 25.2135C247.506 25.2135 247.506 25.2135 247.506 25.2135C247.506 25.2135 247.506 25.2135 247.506 25.2135C247.506 25.2135 247.506 25.2135 247.506 25.2135C247.506 25.2135 247.506 25.2135 247.506 25.2135C247.506 25.2135 247.506 25.2135 247.506 25.2135C247.506 25.2134 247.506 25.2134 247.506 25.2134C247.506 25.2134 247.506 25.2134 247.506 25.2134C247.506 25.2134 247.506 25.2134 247.506 25.2134C247.506 25.2134 247.506 25.2134 247.506 25.2134C247.506 25.2134 247.506 25.2134 247.506 25.2134C247.506 25.2134 247.506 25.2134 247.506 25.2134C247.506 25.2134 247.506 25.2134 247.506 25.2134C247.506 25.2134 247.506 25.2134 247.506 25.2134C247.506 25.2134 247.506 25.2134 247.506 25.2134C247.506 25.2134 247.506 25.2134 247.506 25.2134C247.506 25.2134 247.506 25.2134 247.506 25.2134C247.506 25.2134 247.506 25.2134 247.506 25.2134C247.506 25.2134 247.506 25.2134 247.506 25.2134C247.506 25.2134 247.506 25.2134 247.506 25.2134C247.506 25.2134 247.506 25.2134 247.506 25.2134C247.506 25.2134 247.506 25.2134 247.506 25.2134C247.506 25.2134 247.506 25.2134 247.506 25.2134C247.506 25.2134 247.506 25.2134 247.506 25.2133C247.506 25.2133 247.506 25.2133 247.506 25.2133C247.506 25.2133 247.506 25.2133 247.506 25.2133C247.506 25.2133 247.506 25.2133 247.506 25.2133C247.506 25.2133 247.506 25.2133 247.506 25.2133C247.506 25.2133 247.506 25.2133 247.506 25.2133C247.506 25.2133 247.506 25.2133 247.506 25.2133C247.506 25.2133 247.506 25.2133 247.506 25.2133C247.506 25.2133 247.506 25.2133 247.506 25.2133C247.506 25.2133 247.506 25.2133 247.506 25.2133C247.506 25.2133 247.506 25.2133 247.506 25.2133C247.506 25.2133 247.506 25.2133 247.506 25.2133C247.506 25.2133 247.506 25.2133 247.506 25.2133C247.506 25.2133 247.506 25.2133 247.506 25.2133C247.506 25.2133 247.506 25.2133 247.506 25.2133C247.506 25.2133 247.506 25.2133 247.506 25.2133C247.506 25.2133 247.506 25.2133 247.506 25.2133C247.506 25.2133 247.506 25.2133 247.506 25.2133C247.506 25.2132 247.506 25.2132 247.506 25.2132C247.506 25.2132 247.506 25.2132 247.506 25.2132C247.506 25.2132 247.506 25.2132 247.506 25.2132C247.506 25.2132 247.506 25.2132 247.506 25.2132C247.506 25.2132 247.506 25.2132 247.506 25.2132C247.506 25.2132 247.506 25.2132 247.506 25.2132C247.506 25.2132 247.506 25.2132 247.506 25.2132C247.506 25.2132 247.506 25.2132 247.506 25.2132C247.506 25.2132 247.506 25.2132 247.506 25.2132C247.506 25.2132 247.506 25.2132 247.506 25.2132C247.506 25.2132 247.506 25.2132 247.506 25.2132C247.506 25.2132 247.506 25.2132 247.506 25.2132C247.506 25.2132 247.506 25.2132 247.506 25.2132C247.506 25.2132 247.506 25.2132 247.506 25.2132C247.506 25.2132 247.506 25.2132 247.506 25.2132C247.506 25.2132 247.506 25.2132 247.506 25.2132C247.506 25.2132 247.506 25.2132 247.506 25.2132C247.506 25.2132 247.506 25.2132 247.506 25.2131C247.506 25.2131 247.506 25.2131 247.506 25.2131C247.506 25.2131 247.506 25.2131 247.506 25.2131C247.506 25.2131 247.506 25.2131 247.506 25.2131C247.506 25.2131 247.506 25.2131 247.506 25.2131C247.506 25.2131 247.506 25.2131 247.506 25.2131C247.506 25.2131 247.506 25.2131 247.506 25.2131C247.506 25.2131 247.506 25.2131 247.506 25.2131C247.506 25.2131 247.506 25.2131 247.506 25.2131C247.506 25.2131 247.506 25.2131 247.506 25.2131C247.506 25.2131 247.506 25.2131 247.506 25.2131C247.506 25.2131 247.506 25.2131 247.506 25.2131C247.506 25.2131 247.506 25.2131 247.506 25.2131C247.506 25.2131 247.506 25.2131 247.506 25.2131C247.506 25.2131 247.506 25.2131 247.506 25.2131C247.506 25.2131 247.506 25.2131 247.506 25.2131C247.506 25.2131 247.506 25.2131 247.506 25.2131C247.506 25.2131 247.506 25.2131 247.506 25.2131C247.506 25.2131 247.506 25.213 247.506 25.213C247.506 25.213 247.506 25.213 247.506 25.213C247.506 25.213 247.506 25.213 247.506 25.213C247.506 25.213 247.506 25.213 247.506 25.213C247.506 25.213 247.506 25.213 247.506 25.213C247.506 25.213 247.506 25.213 247.506 25.213C247.506 25.213 247.506 25.213 247.506 25.213C247.506 25.213 247.506 25.213 247.506 25.213C247.506 25.213 247.506 25.213 247.506 25.213C247.506 25.213 247.506 25.213 247.506 25.213C247.506 25.213 247.506 25.213 247.506 25.213C247.506 25.213 247.506 25.213 247.506 25.213C247.506 25.213 247.506 25.213 247.506 25.213C247.506 25.213 247.506 25.213 247.506 25.213C247.506 25.213 247.506 25.213 247.506 25.213C247.506 25.213 247.506 25.213 247.506 25.213C247.506 25.213 247.506 25.213 247.506 25.213C247.506 25.213 247.506 25.213 247.506 25.2129C247.506 25.2129 247.506 25.2129 247.506 25.2129C247.506 25.2129 247.506 25.2129 247.506 25.2129C247.506 25.2129 247.506 25.2129 247.506 25.2129C247.506 25.2129 247.506 25.2129 247.506 25.2129C247.506 25.2129 247.506 25.2129 247.506 25.2129C247.506 25.2129 247.506 25.2129 247.506 25.2129C247.506 25.2129 247.506 25.2129 247.506 25.2129C247.506 25.2129 247.506 25.2129 247.506 25.2129C247.506 25.2129 247.506 25.2129 247.506 25.2129C247.506 25.2129 247.506 25.2129 247.506 25.2129C247.506 25.2129 247.506 25.2129 247.506 25.2129C247.506 25.2129 247.506 25.2129 247.506 25.2129C247.506 25.2129 247.506 25.2129 247.506 25.2129C247.506 25.2129 247.506 25.2129 247.506 25.2129C247.506 25.2129 247.506 25.2129 247.506 25.2129C247.506 25.2129 247.506 25.2129 247.506 25.2129C247.506 25.2129 247.506 25.2129 247.506 25.2129C247.506 25.2129 247.506 25.2128 247.506 25.2128C247.506 25.2128 247.506 25.2128 247.506 25.2128C247.506 25.2128 247.506 25.2128 247.506 25.2128C247.506 25.2128 247.506 25.2128 247.506 25.2128C247.506 25.2128 247.506 25.2128 247.506 25.2128C247.506 25.2128 247.506 25.2128 247.506 25.2128C247.506 25.2128 247.506 25.2128 247.506 25.2128C247.506 25.2128 247.506 25.2128 247.506 25.2128C247.506 25.2128 247.506 25.2128 247.506 25.2128C247.506 25.2128 247.506 25.2128 247.506 25.2128C247.506 25.2128 247.507 25.2128 247.507 25.2128C247.507 25.2128 247.507 25.2128 247.507 25.2128C247.507 25.2128 247.507 25.2128 247.507 25.2128C247.507 25.2128 247.507 25.2128 247.507 25.2128C247.507 25.2128 247.507 25.2128 247.507 25.2128C247.507 25.2128 247.507 25.2128 247.507 25.2128C247.507 25.2128 247.507 25.2128 247.507 25.2128C247.507 25.2128 247.507 25.2128 247.507 25.2127C247.507 25.2127 247.507 25.2127 247.507 25.2127C247.507 25.2127 247.507 25.2127 247.507 25.2127C247.507 25.2127 247.507 25.2127 247.507 25.2127C247.507 25.2127 247.507 25.2127 247.507 25.2127C247.507 25.2127 247.507 25.2127 247.507 25.2127C247.507 25.2127 247.507 25.2127 247.507 25.2127C247.507 25.2127 247.507 25.2127 247.507 25.2127C247.507 25.2127 247.507 25.2127 247.507 25.2127C247.507 25.2127 247.507 25.2127 247.507 25.2127C247.507 25.2127 247.507 25.2127 247.507 25.2127C247.507 25.2127 247.507 25.2127 247.507 25.2127C247.507 25.2127 247.507 25.2127 247.507 25.2127C247.507 25.2127 247.507 25.2127 247.507 25.2127C247.507 25.2127 247.507 25.2127 247.507 25.2127C247.507 25.2127 247.507 25.2127 247.507 25.2127C247.507 25.2127 247.507 25.2127 247.507 25.2127C247.507 25.2127 247.507 25.2127 247.507 25.2127C247.507 25.2127 247.507 25.2127 247.507 25.2126C247.507 25.2126 247.507 25.2126 247.507 25.2126C247.507 25.2126 247.507 25.2126 247.507 25.2126C247.507 25.2126 247.507 25.2126 247.507 25.2126C247.507 25.2126 247.507 25.2126 247.507 25.2126C247.507 25.2126 247.507 25.2126 247.507 25.2126C247.507 25.2126 247.507 25.2126 247.507 25.2126C247.507 25.2126 247.507 25.2126 247.507 25.2126C247.507 25.2126 247.507 25.2126 247.507 25.2126C247.507 25.2126 247.507 25.2126 247.507 25.2126C247.507 25.2126 247.507 25.2126 247.507 25.2126C247.507 25.2126 247.507 25.2126 247.507 25.2126C247.507 25.2126 247.507 25.2126 247.507 25.2126C247.507 25.2126 247.507 25.2126 247.507 25.2126C247.507 25.2126 247.507 25.2126 247.507 25.2126C247.507 25.2126 247.507 25.2126 247.507 25.2126C247.507 25.2126 247.507 25.2126 247.507 25.2126C247.507 25.2126 247.507 25.2126 247.507 25.2126C247.507 25.2125 247.507 25.2125 247.507 25.2125C247.507 25.2125 247.507 25.2125 247.507 25.2125C247.507 25.2125 247.507 25.2125 247.507 25.2125C247.507 25.2125 247.507 25.2125 247.507 25.2125C247.507 25.2125 247.507 25.2125 247.507 25.2125C247.507 25.2125 247.507 25.2125 247.507 25.2125C247.507 25.2125 247.507 25.2125 247.507 25.2125C247.507 25.2125 247.507 25.2125 247.507 25.2125C247.507 25.2125 247.507 25.2125 247.507 25.2125C247.507 25.2125 247.507 25.2125 247.507 25.2125C247.507 25.2125 247.507 25.2125 247.507 25.2125C247.507 25.2125 247.507 25.2125 247.507 25.2125C247.507 25.2125 247.507 25.2125 247.507 25.2125C247.507 25.2125 247.507 25.2125 247.507 25.2125C247.507 25.2125 247.507 25.2125 247.507 25.2125C247.507 25.2125 247.507 25.2125 247.507 25.2125C247.507 25.2125 247.507 25.2125 247.507 25.2125C247.507 25.2125 247.507 25.2125 247.507 25.2124C247.507 25.2124 247.507 25.2124 247.507 25.2124C247.507 25.2124 247.507 25.2124 247.507 25.2124C247.507 25.2124 247.507 25.2124 247.507 25.2124C247.507 25.2124 247.507 25.2124 247.507 25.2124C247.507 25.2124 247.507 25.2124 247.507 25.2124C247.507 25.2124 247.507 25.2124 247.507 25.2124C247.507 25.2124 247.507 25.2124 247.507 25.2124C247.507 25.2124 247.507 25.2124 247.507 25.2124C247.507 25.2124 247.507 25.2124 247.507 25.2124C247.507 25.2124 247.507 25.2124 247.507 25.2124C247.507 25.2124 247.507 25.2124 247.507 25.2124C247.507 25.2124 247.507 25.2124 247.507 25.2124C247.507 25.2124 247.507 25.2124 247.507 25.2124C247.507 25.2124 247.507 25.2124 247.507 25.2124C247.507 25.2124 247.507 25.2124 247.507 25.2124C247.507 25.2124 247.507 25.2124 247.507 25.2124C247.507 25.2124 247.507 25.2124 247.507 25.2124C247.507 25.2123 247.507 25.2123 247.507 25.2123C247.507 25.2123 247.507 25.2123 247.507 25.2123C247.507 25.2123 247.507 25.2123 247.507 25.2123C247.507 25.2123 247.507 25.2123 247.507 25.2123C247.507 25.2123 247.507 25.2123 247.507 25.2123C247.507 25.2123 247.507 25.2123 247.507 25.2123C247.507 25.2123 247.507 25.2123 247.507 25.2123C247.507 25.2123 247.507 25.2123 247.507 25.2123C247.507 25.2123 247.507 25.2123 247.507 25.2123C247.507 25.2123 247.507 25.2123 247.507 25.2123C247.507 25.2123 247.507 25.2123 247.507 25.2123C247.507 25.2123 247.507 25.2123 247.507 25.2123C247.507 25.2123 247.507 25.2123 247.507 25.2123C247.507 25.2123 247.507 25.2123 247.507 25.2123C247.507 25.2123 247.507 25.2123 247.507 25.2123C247.507 25.2123 247.507 25.2123 247.507 25.2123C247.507 25.2123 247.507 25.2123 247.507 25.2123C247.507 25.2123 247.507 25.2122 247.507 25.2122C247.507 25.2122 247.507 25.2122 247.507 25.2122C247.507 25.2122 247.507 25.2122 247.507 25.2122C247.507 25.2122 247.507 25.2122 247.507 25.2122C247.507 25.2122 247.507 25.2122 247.507 25.2122C247.507 25.2122 247.507 25.2122 247.507 25.2122C247.507 25.2122 247.507 25.2122 247.507 25.2122C247.507 25.2122 247.507 25.2122 247.507 25.2122C247.507 25.2122 247.507 25.2122 247.507 25.2122C247.507 25.2122 247.507 25.2122 247.507 25.2122C247.507 25.2122 247.507 25.2122 247.507 25.2122C247.507 25.2122 247.507 25.2122 247.507 25.2122C247.507 25.2122 247.507 25.2122 247.507 25.2122C247.507 25.2122 247.507 25.2122 247.507 25.2122C247.507 25.2122 247.507 25.2122 247.507 25.2122C247.507 25.2122 247.507 25.2122 247.507 25.2122C247.507 25.2122 247.507 25.2122 247.507 25.2122C247.507 25.2122 247.507 25.2122 247.507 25.2122C247.507 25.2122 247.507 25.2121 247.507 25.2121C247.507 25.2121 247.507 25.2121 247.507 25.2121C247.507 25.2121 247.507 25.2121 247.507 25.2121C247.507 25.2121 247.507 25.2121 247.507 25.2121C247.507 25.2121 247.507 25.2121 247.507 25.2121C247.507 25.2121 247.507 25.2121 247.507 25.2121C247.507 25.2121 247.507 25.2121 247.507 25.2121C247.507 25.2121 247.507 25.2121 247.507 25.2121C247.507 25.2121 247.507 25.2121 247.507 25.2121C247.507 25.2121 247.507 25.2121 247.507 25.2121C247.507 25.2121 247.507 25.2121 247.507 25.2121C247.507 25.2121 247.507 25.2121 247.507 25.2121C247.507 25.2121 247.507 25.2121 247.507 25.2121C247.507 25.2121 247.507 25.2121 247.507 25.2121C247.507 25.2121 247.507 25.2121 247.507 25.2121C247.507 25.2121 247.507 25.2121 247.507 25.2121C247.507 25.2121 247.507 25.2121 247.507 25.2121C247.507 25.2121 247.507 25.2121 247.507 25.212C247.507 25.212 247.507 25.212 247.507 25.212C247.507 25.212 247.507 25.212 247.507 25.212C247.507 25.212 247.507 25.212 247.507 25.212C247.507 25.212 247.507 25.212 247.507 25.212C247.507 25.212 247.507 25.212 247.507 25.212C247.507 25.212 247.507 25.212 247.507 25.212C247.507 25.212 247.507 25.212 247.507 25.212C247.507 25.212 247.507 25.212 247.507 25.212C247.507 25.212 247.507 25.212 247.507 25.212C247.507 25.212 247.507 25.212 247.507 25.212C247.507 25.212 247.507 25.212 247.507 25.212C247.508 25.212 247.508 25.212 247.508 25.212C247.508 25.212 247.508 25.212 247.508 25.212C247.508 25.212 247.508 25.212 247.508 25.212C247.508 25.212 247.508 25.212 247.508 25.212C247.508 25.212 247.508 25.212 247.508 25.212C247.508 25.212 247.508 25.212 247.508 25.212C247.508 25.212 247.508 25.2119 247.508 25.2119C247.508 25.2119 247.508 25.2119 247.508 25.2119C247.508 25.2119 247.508 25.2119 247.508 25.2119C247.508 25.2119 247.508 25.2119 247.508 25.2119C247.508 25.2119 247.508 25.2119 247.508 25.2119C247.508 25.2119 247.508 25.2119 247.508 25.2119C247.508 25.2119 247.508 25.2119 247.508 25.2119C247.508 25.2119 247.508 25.2119 247.508 25.2119C247.508 25.2119 247.508 25.2119 247.508 25.2119C247.508 25.2119 247.508 25.2119 247.508 25.2119C247.508 25.2119 247.508 25.2119 247.508 25.2119C247.508 25.2119 247.508 25.2119 247.508 25.2119C247.508 25.2119 247.508 25.2119 247.508 25.2119C247.508 25.2119 247.508 25.2119 247.508 25.2119C247.508 25.2119 247.508 25.2119 247.508 25.2119C247.508 25.2119 247.508 25.2119 247.508 25.2119C247.508 25.2119 247.508 25.2119 247.508 25.2119C247.508 25.2119 247.508 25.2119 247.508 25.2118C247.508 25.2118 247.508 25.2118 247.508 25.2118C247.508 25.2118 247.508 25.2118 247.508 25.2118C247.508 25.2118 247.508 25.2118 247.508 25.2118C247.508 25.2118 247.508 25.2118 247.508 25.2118C247.508 25.2118 247.508 25.2118 247.508 25.2118C247.508 25.2118 247.508 25.2118 247.508 25.2118C247.508 25.2118 247.508 25.2118 247.508 25.2118C247.508 25.2118 247.508 25.2118 247.508 25.2118C247.508 25.2118 247.508 25.2118 247.508 25.2118C247.508 25.2118 247.508 25.2118 247.508 25.2118C247.508 25.2118 247.508 25.2118 247.508 25.2118C247.508 25.2118 247.508 25.2118 247.508 25.2118C247.508 25.2118 247.508 25.2118 247.508 25.2118C247.508 25.2118 247.508 25.2118 247.508 25.2118C247.508 25.2118 247.508 25.2118 247.508 25.2118C247.508 25.2118 247.508 25.2118 247.508 25.2118C247.508 25.2118 247.508 25.2118 247.508 25.2118C247.508 25.2118 247.508 25.2117 247.508 25.2117C247.508 25.2117 247.508 25.2117 247.508 25.2117C247.508 25.2117 247.508 25.2117 247.508 25.2117C247.508 25.2117 247.508 25.2117 247.508 25.2117C247.508 25.2117 247.508 25.2117 247.508 25.2117C247.508 25.2117 247.508 25.2117 247.508 25.2117C247.508 25.2117 247.508 25.2117 247.508 25.2117C247.508 25.2117 247.508 25.2117 247.508 25.2117C247.508 25.2117 247.508 25.2117 247.508 25.2117C247.508 25.2117 247.508 25.2117 247.508 25.2117C247.508 25.2117 247.508 25.2117 247.508 25.2117C247.508 25.2117 247.508 25.2117 247.508 25.2117C247.508 25.2117 247.508 25.2117 247.508 25.2117C247.508 25.2117 247.508 25.2117 247.508 25.2117C247.508 25.2117 247.508 25.2117 247.508 25.2117C247.508 25.2117 247.508 25.2117 247.508 25.2117C247.508 25.2117 247.508 25.2117 247.508 25.2117C247.508 25.2117 247.508 25.2117 247.508 25.2117C247.508 25.2116 247.508 25.2116 247.508 25.2116C247.508 25.2116 247.508 25.2116 247.508 25.2116C247.508 25.2116 247.508 25.2116 247.508 25.2116C247.508 25.2116 247.508 25.2116 247.508 25.2116C247.508 25.2116 247.508 25.2116 247.508 25.2116C247.508 25.2116 247.508 25.2116 247.508 25.2116C247.508 25.2116 247.508 25.2116 247.508 25.2116C247.508 25.2116 247.508 25.2116 247.508 25.2116C247.508 25.2116 247.508 25.2116 247.508 25.2116C247.508 25.2116 247.508 25.2116 247.508 25.2116C247.508 25.2116 247.508 25.2116 247.508 25.2116C247.508 25.2116 247.508 25.2116 247.508 25.2116C247.508 25.2116 247.508 25.2116 247.508 25.2116C247.508 25.2116 247.508 25.2116 247.508 25.2116C247.508 25.2116 247.508 25.2116 247.508 25.2116C247.508 25.2116 247.508 25.2116 247.508 25.2116C247.508 25.2116 247.508 25.2116 247.508 25.2116C247.508 25.2116 247.508 25.2115 247.508 25.2115C247.508 25.2115 247.508 25.2115 247.508 25.2115C247.508 25.2115 247.508 25.2115 247.508 25.2115C247.508 25.2115 247.508 25.2115 247.508 25.2115C247.508 25.2115 247.508 25.2115 247.508 25.2115C247.508 25.2115 247.508 25.2115 247.508 25.2115C247.508 25.2115 247.508 25.2115 247.508 25.2115C247.508 25.2115 247.508 25.2115 247.508 25.2115C247.508 25.2115 247.508 25.2115 247.508 25.2115C247.508 25.2115 247.508 25.2115 247.508 25.2115C247.508 25.2115 247.508 25.2115 247.508 25.2115C247.508 25.2115 247.508 25.2115 247.508 25.2115C247.508 25.2115 247.508 25.2115 247.508 25.2115C247.508 25.2115 247.508 25.2115 247.508 25.2115C247.508 25.2115 247.508 25.2115 247.508 25.2115C247.508 25.2115 247.508 25.2115 247.508 25.2115C247.508 25.2115 247.508 25.2115 247.508 25.2115C247.508 25.2115 247.508 25.2115 247.508 25.2115C247.508 25.2114 247.508 25.2114 247.508 25.2114C247.508 25.2114 247.508 25.2114 247.508 25.2114C247.508 25.2114 247.508 25.2114 247.508 25.2114C247.508 25.2114 247.508 25.2114 247.508 25.2114C247.508 25.2114 247.508 25.2114 247.508 25.2114C247.508 25.2114 247.508 25.2114 247.508 25.2114C247.508 25.2114 247.508 25.2114 247.508 25.2114C247.508 25.2114 247.508 25.2114 247.508 25.2114C247.508 25.2114 247.508 25.2114 247.508 25.2114C247.508 25.2114 247.508 25.2114 247.508 25.2114C247.508 25.2114 247.508 25.2114 247.508 25.2114C247.508 25.2114 247.508 25.2114 247.508 25.2114C247.508 25.2114 247.508 25.2114 247.508 25.2114C247.508 25.2114 247.508 25.2114 247.508 25.2114C247.508 25.2114 247.508 25.2114 247.508 25.2114C247.508 25.2114 247.508 25.2114 247.508 25.2114C247.508 25.2114 247.508 25.2114 247.508 25.2114C247.508 25.2114 247.508 25.2113 247.508 25.2113C247.508 25.2113 247.508 25.2113 247.508 25.2113C247.508 25.2113 247.508 25.2113 247.508 25.2113C247.508 25.2113 247.508 25.2113 247.508 25.2113C247.508 25.2113 247.508 25.2113 247.508 25.2113C247.508 25.2113 247.508 25.2113 247.508 25.2113C247.508 25.2113 247.508 25.2113 247.508 25.2113C247.508 25.2113 247.508 25.2113 247.508 25.2113C247.508 25.2113 247.508 25.2113 247.508 25.2113C247.508 25.2113 247.508 25.2113 247.508 25.2113C247.508 25.2113 247.508 25.2113 247.508 25.2113C247.508 25.2113 247.508 25.2113 247.508 25.2113C247.508 25.2113 247.508 25.2113 247.508 25.2113C247.508 25.2113 247.508 25.2113 247.508 25.2113C247.508 25.2113 247.508 25.2113 247.508 25.2113C247.508 25.2113 247.508 25.2113 247.508 25.2113C247.508 25.2113 247.508 25.2113 247.508 25.2113C247.508 25.2113 247.508 25.2113 247.508 25.2113C247.508 25.2112 247.508 25.2112 247.508 25.2112C247.508 25.2112 247.508 25.2112 247.508 25.2112C247.508 25.2112 247.508 25.2112 247.508 25.2112C247.508 25.2112 247.508 25.2112 247.508 25.2112C247.508 25.2112 247.508 25.2112 247.508 25.2112C247.508 25.2112 247.508 25.2112 247.508 25.2112C247.508 25.2112 247.508 25.2112 247.508 25.2112C247.508 25.2112 247.508 25.2112 247.508 25.2112C247.508 25.2112 247.508 25.2112 247.508 25.2112C247.508 25.2112 247.508 25.2112 247.508 25.2112C247.508 25.2112 247.508 25.2112 247.508 25.2112C247.508 25.2112 247.509 25.2112 247.509 25.2112C247.509 25.2112 247.509 25.2112 247.509 25.2112C247.509 25.2112 247.509 25.2112 247.509 25.2112C247.509 25.2112 247.509 25.2112 247.509 25.2112C247.509 25.2112 247.509 25.2112 247.509 25.2112C247.509 25.2112 247.509 25.2112 247.509 25.2112C247.509 25.2112 247.509 25.2112 247.509 25.2111C247.509 25.2111 247.509 25.2111 247.509 25.2111C247.509 25.2111 247.509 25.2111 247.509 25.2111C247.509 25.2111 247.509 25.2111 247.509 25.2111C247.509 25.2111 247.509 25.2111 247.509 25.2111C247.509 25.2111 247.509 25.2111 247.509 25.2111C247.509 25.2111 247.509 25.2111 247.509 25.2111C247.509 25.2111 247.509 25.2111 247.509 25.2111C247.509 25.2111 247.509 25.2111 247.509 25.2111C247.509 25.2111 247.509 25.2111 247.509 25.2111C247.509 25.2111 247.509 25.2111 247.509 25.2111C247.509 25.2111 247.509 25.2111 247.509 25.2111C247.509 25.2111 247.509 25.2111 247.509 25.2111C247.509 25.2111 247.509 25.2111 247.509 25.2111C247.509 25.2111 247.509 25.2111 247.509 25.2111C247.509 25.2111 247.509 25.2111 247.509 25.2111C247.509 25.2111 247.509 25.2111 247.509 25.2111C247.509 25.2111 247.509 25.2111 247.509 25.2111C247.509 25.2111 247.509 25.211 247.509 25.211C247.509 25.211 247.509 25.211 247.509 25.211C247.509 25.211 247.509 25.211 247.509 25.211C247.509 25.211 247.509 25.211 247.509 25.211C247.509 25.211 247.509 25.211 247.509 25.211C247.509 25.211 247.509 25.211 247.509 25.211C247.509 25.211 247.509 25.211 247.509 25.211C247.509 25.211 247.509 25.211 247.509 25.211C247.509 25.211 247.509 25.211 247.509 25.211C247.509 25.211 247.509 25.211 247.509 25.211C247.509 25.211 247.509 25.211 247.509 25.211C247.509 25.211 247.509 25.211 247.509 25.211C247.509 25.211 247.509 25.211 247.509 25.211C247.509 25.211 247.509 25.211 247.509 25.211C247.509 25.211 247.509 25.211 247.509 25.211C247.509 25.211 247.509 25.211 247.509 25.211C247.509 25.211 247.509 25.211 247.509 25.211C247.509 25.211 247.509 25.211 247.509 25.2109C247.509 25.2109 247.509 25.2109 247.509 25.2109C247.509 25.2109 247.509 25.2109 247.509 25.2109C247.509 25.2109 247.509 25.2109 247.509 25.2109C247.509 25.2109 247.509 25.2109 247.509 25.2109C247.509 25.2109 247.509 25.2109 247.509 25.2109C247.509 25.2109 247.509 25.2109 247.509 25.2109C247.509 25.2109 247.509 25.2109 247.509 25.2109C247.509 25.2109 247.509 25.2109 247.509 25.2109C247.509 25.2109 247.509 25.2109 247.509 25.2109C247.509 25.2109 247.509 25.2109 247.509 25.2109C247.509 25.2109 247.509 25.2109 247.509 25.2109C247.509 25.2109 247.509 25.2109 247.509 25.2109C247.509 25.2109 247.509 25.2109 247.509 25.2109C247.509 25.2109 247.509 25.2109 247.509 25.2109C247.509 25.2109 247.509 25.2109 247.509 25.2109C247.509 25.2109 247.509 25.2109 247.509 25.2109C247.509 25.2109 247.509 25.2109 247.509 25.2109C247.509 25.2108 247.509 25.2108 247.509 25.2108C247.509 25.2108 247.509 25.2108 247.509 25.2108C247.509 25.2108 247.509 25.2108 247.509 25.2108C247.509 25.2108 247.509 25.2108 247.509 25.2108C247.509 25.2108 247.509 25.2108 247.509 25.2108C247.509 25.2108 247.509 25.2108 247.509 25.2108C247.509 25.2108 247.509 25.2108 247.509 25.2108C247.509 25.2108 247.509 25.2108 247.509 25.2108C247.509 25.2108 247.509 25.2108 247.509 25.2108C247.509 25.2108 247.509 25.2108 247.509 25.2108C247.509 25.2108 247.509 25.2108 247.509 25.2108C247.509 25.2108 247.509 25.2108 247.509 25.2108C247.509 25.2108 247.509 25.2108 247.509 25.2108C247.509 25.2108 247.509 25.2108 247.509 25.2108C247.509 25.2108 247.509 25.2108 247.509 25.2108C247.509 25.2108 247.509 25.2108 247.509 25.2108C247.509 25.2108 247.509 25.2108 247.509 25.2108C247.509 25.2108 247.509 25.2108 247.509 25.2107L246.258 23.6504ZM247.189 25.3846L247.198 25.3817L246.58 23.4795L246.571 23.4824L247.189 25.3846ZM246.148 23.7594C245.657 24.3015 245.473 24.9659 245.426 25.5578C245.379 26.1488 245.461 26.7409 245.572 27.2393C245.684 27.7439 245.837 28.195 245.959 28.5169C246.021 28.6792 246.076 28.8118 246.117 28.9057C246.137 28.9528 246.154 28.9903 246.167 29.0173C246.173 29.0307 246.178 29.0416 246.182 29.0496C246.183 29.0537 246.185 29.057 246.186 29.0596C246.187 29.0609 246.187 29.0621 246.188 29.063C246.188 29.0635 246.188 29.0639 246.188 29.0643C246.189 29.0645 246.189 29.0648 246.189 29.0649C246.189 29.0651 246.189 29.0654 247.092 28.6351C247.994 28.2049 247.994 28.2051 247.995 28.2053C247.995 28.2054 247.995 28.2056 247.995 28.2057C247.995 28.2059 247.995 28.2061 247.995 28.2062C247.995 28.2064 247.995 28.2065 247.995 28.2064C247.995 28.2062 247.995 28.2054 247.994 28.2039C247.993 28.2009 247.99 28.1953 247.986 28.1872C247.979 28.171 247.967 28.1449 247.952 28.1101C247.922 28.0403 247.878 27.936 247.829 27.8059C247.729 27.5431 247.609 27.1873 247.524 26.8037C247.437 26.4139 247.394 26.0363 247.42 25.7167C247.445 25.3982 247.531 25.2112 247.63 25.1018L246.148 23.7594ZM246.244 29.1649C248.162 32.2361 249.907 34.884 251.468 37.1071L253.105 35.9578C251.569 33.7706 249.844 31.1537 247.94 28.1053L246.244 29.1649ZM252.287 36.5325C251.408 37.0093 251.408 37.0096 251.408 37.01C251.408 37.0102 251.408 37.0106 251.408 37.0109C251.409 37.0116 251.409 37.0125 251.41 37.0135C251.411 37.0155 251.412 37.0182 251.414 37.0216C251.418 37.0283 251.423 37.0375 251.43 37.0493C251.443 37.073 251.462 37.1067 251.486 37.1503C251.536 37.2373 251.609 37.3633 251.706 37.5251C251.9 37.8487 252.189 38.3156 252.577 38.8999C253.354 40.0683 254.528 41.7076 256.127 43.6112C259.326 47.4174 264.235 52.2886 271.085 56.5624L272.143 54.8656C265.507 50.725 260.752 46.0056 257.658 42.3245C256.112 40.4845 254.983 38.9062 254.243 37.7928C253.873 37.2362 253.6 36.7961 253.422 36.498C253.333 36.349 253.267 36.2354 253.224 36.1606C253.203 36.1232 253.188 36.0955 253.178 36.0779C253.173 36.0691 253.17 36.0628 253.167 36.0591C253.166 36.0572 253.166 36.056 253.165 36.0554C253.165 36.0551 253.165 36.055 253.165 36.055C253.165 36.0551 253.165 36.0552 253.165 36.0552C253.165 36.0554 253.166 36.0556 252.287 36.5325ZM271.085 56.5624C278.186 60.9931 284.793 59.9128 289.56 57.7461C291.933 56.6677 293.859 55.3191 295.19 54.2432C295.857 53.7042 296.378 53.2308 296.736 52.8893C296.914 52.7185 297.052 52.5804 297.147 52.4833C297.194 52.4348 297.231 52.3965 297.257 52.3694C297.269 52.3559 297.279 52.3452 297.287 52.3374C297.29 52.3335 297.293 52.3304 297.295 52.328C297.297 52.3268 297.297 52.3258 297.298 52.3249C297.299 52.3245 297.299 52.3241 297.299 52.3239C297.3 52.3234 297.3 52.323 296.563 51.6466C295.827 50.9702 295.827 50.9699 295.827 50.9697C295.827 50.9697 295.828 50.9695 295.828 50.9695C295.828 50.9694 295.828 50.9695 295.827 50.9698C295.827 50.9704 295.825 50.9718 295.824 50.9739C295.82 50.978 295.813 50.9851 295.804 50.9949C295.785 51.0146 295.756 51.0453 295.716 51.0862C295.636 51.1678 295.515 51.2897 295.354 51.4437C295.031 51.752 294.552 52.1879 293.933 52.6876C292.694 53.6892 290.911 54.9351 288.732 55.9253C284.397 57.8958 278.528 58.8493 272.143 54.8656L271.085 56.5624ZM296.563 51.6466C297.32 52.3002 297.32 52.3005 297.32 52.3007C297.32 52.3008 297.32 52.301 297.32 52.3011C297.319 52.3014 297.319 52.3016 297.319 52.3019C297.318 52.3024 297.318 52.3028 297.318 52.3031C297.317 52.3037 297.317 52.3041 297.317 52.3042C297.317 52.3043 297.318 52.3034 297.319 52.3015C297.323 52.2976 297.33 52.29 297.34 52.2795C297.36 52.2581 297.391 52.227 297.428 52.1929C297.514 52.1138 297.586 52.0639 297.621 52.0469C297.635 52.04 297.604 52.0582 297.536 52.0654C297.457 52.0735 297.33 52.0658 297.197 51.995C297.066 51.9252 297.005 51.8345 296.989 51.8043C296.976 51.7812 296.995 51.8059 297.015 51.919L298.985 51.5747C298.903 51.1069 298.697 50.5279 298.137 50.23C297.567 49.9261 297.016 50.1177 296.75 50.2467C296.458 50.3879 296.219 50.588 296.076 50.7193C295.998 50.7903 295.935 50.8545 295.89 50.9021C295.867 50.9261 295.848 50.9464 295.834 50.9618C295.827 50.9696 295.821 50.9761 295.817 50.9813C295.815 50.984 295.813 50.9863 295.811 50.9882C295.81 50.9892 295.809 50.9901 295.808 50.9909C295.808 50.9913 295.808 50.9917 295.808 50.992C295.807 50.9922 295.807 50.9925 295.807 50.9926C295.807 50.9928 295.807 50.993 296.563 51.6466ZM297.015 51.919C296.983 51.7387 297.04 51.6498 297.008 51.7281C296.986 51.7829 296.933 51.886 296.828 52.0392C296.621 52.343 296.275 52.7487 295.786 53.2246C294.813 54.1714 293.351 55.3195 291.515 56.4005C287.835 58.5661 282.755 60.4024 277.19 59.9141L277.015 61.9065C283.116 62.4417 288.612 60.4295 292.529 58.1242C294.491 56.9697 296.082 55.7267 297.181 54.658C297.727 54.1261 298.172 53.6179 298.479 53.1681C298.632 52.9445 298.768 52.7108 298.863 52.4773C298.947 52.2672 299.048 51.9384 298.985 51.5747L297.015 51.919ZM277.19 59.9141C271.592 59.4231 266.029 56.8749 260.975 53.2857C255.927 49.7006 251.444 45.1166 248.019 40.6459L246.431 41.8622C249.958 46.4652 254.581 51.1976 259.817 54.9163C265.047 58.631 270.947 61.3741 277.015 61.9065L277.19 59.9141ZM248.017 40.6431C246.733 38.9788 244.909 36.2265 242.541 32.3597L240.836 33.404C243.21 37.2816 245.08 40.1107 246.433 41.8649L248.017 40.6431ZM242.536 32.3504L241.308 30.3932L239.613 31.4561L240.841 33.4133L242.536 32.3504ZM241.295 30.3733C240.578 29.2889 239.81 28.4331 238.971 27.9595L237.988 29.7011C238.42 29.945 238.976 30.4925 239.626 31.4761L241.295 30.3733ZM239.015 27.9858C238.167 27.448 236.93 27.249 235.49 27.2259L235.458 29.2257C236.827 29.2476 237.587 29.4487 237.944 29.6749L239.015 27.9858ZM230.285 26.3689C232.553 26.7865 234.661 26.8476 236.596 26.542L236.284 24.5665C234.611 24.8307 232.735 24.7863 230.647 24.402L230.285 26.3689ZM230.46 26.3855H230.466V24.3855H230.46V26.3855ZM229.46 3.56093V25.3855H231.46V3.56093H229.46ZM231.708 2.21488C231.105 2.33082 230.573 2.46301 230.132 2.61646L230.789 4.5054C231.106 4.39507 231.536 4.28459 232.085 4.17896L231.708 2.21488ZM233.605 1.96943C232.877 2.03974 232.249 2.1218 231.727 2.21137L232.066 4.18248C232.527 4.10323 233.105 4.02702 233.797 3.96017L233.605 1.96943ZM236.205 1.83819C235.222 1.83819 234.349 1.88151 233.584 1.97169L233.818 3.95791C234.485 3.87929 235.277 3.83819 236.205 3.83819V1.83819ZM240.6 2.72312C239.311 2.12215 237.837 1.83819 236.205 1.83819V3.83819C237.606 3.83819 238.781 4.08178 239.755 4.5359L240.6 2.72312ZM243.771 5.19062C242.935 4.11124 241.866 3.28088 240.581 2.71443L239.774 4.54459C240.763 4.98047 241.563 5.60614 242.19 6.41536L243.771 5.19062ZM245.646 8.92817C245.236 7.47937 244.613 6.21557 243.753 5.16835L242.208 6.43763C242.864 7.23683 243.373 8.24146 243.722 9.4726L245.646 8.92817ZM246.25 13.6845C246.25 11.9589 246.055 10.3722 245.646 8.92817L243.722 9.4726C244.071 10.7085 244.25 12.1077 244.25 13.6845H246.25ZM245.065 20.1545C245.872 18.3219 246.25 16.1558 246.25 13.6845H244.25C244.25 15.9612 243.901 17.836 243.235 19.3481L245.065 20.1545ZM241.706 24.4804C243.176 23.3941 244.289 21.939 245.067 20.1499L243.233 19.3526C242.58 20.8554 241.675 22.0169 240.518 22.872L241.706 24.4804ZM236.594 26.5423C238.56 26.2357 240.271 25.5527 241.71 24.4773L240.513 22.8751C239.369 23.7305 237.973 24.3031 236.286 24.5662L236.594 26.5423ZM266.256 5.24549C268.323 5.00817 270.649 4.89328 273.248 4.89328V2.89328C270.593 2.89328 268.188 3.01051 266.027 3.25854L266.256 5.24549ZM260.839 5.96553C262.343 5.70658 264.146 5.46662 266.246 5.24657L266.037 3.25746C263.909 3.48054 262.06 3.72592 260.499 3.99452L260.839 5.96553ZM256.167 7.02929C257.536 6.64345 259.097 6.28606 260.85 5.96352L260.488 3.99653C258.685 4.32815 257.064 4.69876 255.625 5.10425L256.167 7.02929ZM255.878 0.549898L254.912 5.88865L256.88 6.24488L257.846 0.90613L255.878 0.549898ZM258.103 -0.2079C257.572 -0.228885 257.188 -0.249382 256.941 -0.268876L256.783 1.7249C257.071 1.74761 257.487 1.76932 258.024 1.79054L258.103 -0.2079ZM259.863 -0.144842C259.219 -0.16588 258.634 -0.186901 258.103 -0.2079L258.024 1.79054C258.56 1.81174 259.15 1.83293 259.798 1.85409L259.863 -0.144842ZM261.932 -0.0763594C261.216 -0.0974579 260.532 -0.118434 259.87 -0.144595L259.791 1.85385C260.464 1.88044 261.157 1.90167 261.873 1.92277L261.932 -0.0763594ZM264.006 -0.0446084C263.348 -0.0661093 262.649 -0.0767941 261.902 -0.0767941V1.92321C262.63 1.92321 263.307 1.93362 263.941 1.95433L264.006 -0.0446084ZM265.731 -0.00677454C265.215 -0.0344865 264.629 -0.0451415 263.974 -0.0451415V1.95486C264.611 1.95486 265.157 1.96531 265.623 1.99035L265.731 -0.00677454ZM286.9 -0.00821328H265.677V1.99179H286.9V-0.00821328ZM288.635 -0.0451415C287.979 -0.0451415 287.384 -0.0344689 286.848 -0.0068917L286.951 1.99047C287.44 1.96529 287.998 1.95486 288.635 1.95486V-0.0451415ZM290.669 -0.0767941C289.949 -0.0767941 289.26 -0.0660981 288.602 -0.0446084L288.668 1.95433C289.302 1.93361 289.969 1.92321 290.669 1.92321V-0.0767941ZM292.7 -0.144542C292.06 -0.11843 291.377 -0.0974711 290.641 -0.0763842L290.698 1.9228C291.435 1.90168 292.129 1.88043 292.781 1.85379L292.7 -0.144542ZM294.506 -0.2079C293.975 -0.186928 293.375 -0.165917 292.709 -0.144875L292.772 1.85413C293.442 1.83296 294.048 1.81177 294.585 1.79054L294.506 -0.2079ZM295.668 -0.268876C295.421 -0.249382 295.037 -0.228885 294.506 -0.2079L294.585 1.79054C295.122 1.76932 295.538 1.74761 295.825 1.7249L295.668 -0.268876ZM297.697 5.88865L296.731 0.549898L294.763 0.90613L295.729 6.24488L297.697 5.88865ZM291.727 5.96352C293.481 6.28616 295.053 6.64385 296.446 7.03034L296.98 5.10319C295.522 4.69837 293.891 4.32804 292.089 3.99653L291.727 5.96352ZM286.331 5.24657C288.43 5.46658 290.228 5.70656 291.739 5.96563L292.077 3.99442C290.512 3.72595 288.669 3.48058 286.539 3.25746L286.331 5.24657ZM279.329 4.89328C281.922 4.89328 284.254 5.00818 286.321 5.24549L286.549 3.25854C284.388 3.01051 281.979 2.89328 279.329 2.89328V4.89328ZM280.329 35.3772V3.89328H278.329V35.3772H280.329ZM280.393 40.2636C280.35 38.8678 280.329 37.2376 280.329 35.3772H278.329C278.329 37.2517 278.35 38.9029 278.393 40.3242L280.393 40.2636ZM280.594 43.8181C280.525 42.8133 280.456 41.6232 280.392 40.2476L278.394 40.3402C278.458 41.7289 278.528 42.9338 278.598 43.9548L280.594 43.8181ZM280.882 46.2614C280.775 45.6168 280.682 44.7958 280.592 43.7967L278.6 43.9762C278.691 44.9923 278.79 45.87 278.908 46.5865L280.882 46.2614ZM281.256 47.8592C281.133 47.4395 281.007 46.8961 280.876 46.2315L278.914 46.6164C279.05 47.3128 279.19 47.9195 279.335 48.4177L281.256 47.8592ZM281.295 48.2703V48.1385H279.295V48.2703H281.295ZM272.319 49.2703H280.295V47.2703H272.319V49.2703ZM271.319 48.1385V48.2703H273.319V48.1385H271.319ZM271.7 46.2614C271.592 46.9196 271.477 47.4522 271.359 47.8592L273.279 48.4177C273.428 47.9067 273.558 47.2893 273.674 46.5865L271.7 46.2614ZM271.99 43.802C271.906 44.7924 271.807 45.6143 271.7 46.2614L273.674 46.5865C273.791 45.8725 273.896 44.9957 273.983 43.9709L271.99 43.802ZM272.19 40.2591C272.142 41.6326 272.079 42.8099 271.99 43.7972L273.982 43.9757C274.075 42.9372 274.14 41.7195 274.188 40.3286L272.19 40.2591ZM272.253 35.3772C272.253 37.2376 272.232 38.8678 272.189 40.2636L274.189 40.3242C274.232 38.9029 274.253 37.2517 274.253 35.3772H272.253ZM272.253 3.89328V35.3772H274.253V3.89328H272.253ZM273.248 4.89328H273.253V2.89328H273.248V4.89328Z" fill="white" mask="url(#path-7-inside-1_1645_180)"/>
</g>
<defs>
<clipPath id="clip0_1645_180">
<rect width="298" height="61" fill="white"/>
</clipPath>
</defs>
</svg>
