<svg width="120" height="30" viewBox="0 0 120 30" fill="none" xmlns="http://www.w3.org/2000/svg">
<g clip-path="url(#clip0_1645_340)">
<path d="M4.38182 22.8981C3.72623 22.9624 3.0082 22.9958 2.22512 22.9958V13.6252C2.22512 13.067 2.23293 12.5834 2.24594 12.1693C2.26675 11.7526 2.28496 11.3925 2.30577 11.089C2.33179 10.7803 2.36301 10.5256 2.39422 10.3224C2.43325 10.1192 2.47487 9.94946 2.5139 9.81056V9.77197H0.130859V9.81056C0.169883 9.94946 0.206305 10.1192 0.240125 10.3224C0.279149 10.5256 0.312969 10.7803 0.338985 11.089C0.365001 11.3899 0.385813 11.75 0.398821 12.1693C0.411829 12.5834 0.419634 13.067 0.419634 13.6252V20.0172C0.419634 20.5728 0.411829 21.0615 0.398821 21.4808C0.385813 21.8924 0.365001 22.2499 0.338985 22.5508C0.312969 22.8518 0.279149 23.1039 0.240125 23.3071C0.206305 23.5103 0.169883 23.6801 0.130859 23.819V23.8575H4.74084C4.89433 23.8627 5.06604 23.8678 5.25855 23.8678C5.45107 23.873 5.65139 23.8781 5.86472 23.8781C6.08325 23.8858 6.28877 23.891 6.48129 23.8987C6.67901 23.9038 6.85852 23.9116 7.01721 23.9193C7.17591 23.9244 7.29558 23.9321 7.37363 23.9373L7.6624 22.3476C7.19152 22.4711 6.67121 22.5791 6.10406 22.6717C5.61497 22.7566 5.04002 22.8312 4.38443 22.8981H4.38182Z" fill="white"/>
<path d="M8.78906 9.813C8.82809 9.9519 8.86451 10.1217 8.89833 10.3249C8.93215 10.5281 8.96077 10.7827 8.98678 11.0914C9.0128 11.3924 9.03361 11.7525 9.04662 12.1717C9.05963 12.5859 9.06743 13.0694 9.06743 13.6276V20.0196C9.06743 20.5752 9.05963 21.064 9.04662 21.4832C9.03361 21.8948 9.0128 22.2523 8.98678 22.5533C8.96077 22.8542 8.92955 23.1063 8.89833 23.3095C8.86451 23.5127 8.82809 23.6825 8.78906 23.8214V23.86H11.1643V23.8214C11.1253 23.6851 11.0836 23.5127 11.0446 23.3095C11.0108 23.1063 10.9822 22.8542 10.9562 22.5533C10.9354 22.2523 10.9171 21.8948 10.8963 21.4832C10.8833 21.064 10.8755 20.5752 10.8755 20.0196V13.6276C10.8755 13.0694 10.8833 12.5859 10.8963 12.1717C10.9171 11.755 10.9354 11.3949 10.9562 11.0914C10.9822 10.7827 11.0134 10.5281 11.0446 10.3249C11.0836 10.1217 11.1253 9.9519 11.1643 9.813V9.77441H8.78906V9.813Z" fill="white"/>
<path d="M24.4605 9.81287C24.4735 9.83859 24.4865 9.88232 24.4995 9.94148C24.5125 9.99292 24.5203 10.0598 24.5203 10.137C24.5203 10.4302 24.4631 10.7234 24.3512 11.0115C24.2394 11.2996 24.1327 11.5646 24.0339 11.8064L19.7829 21.5397L15.3836 11.7292C15.2249 11.3639 15.1157 11.0578 15.0558 10.816C15.0038 10.5665 14.9752 10.3427 14.9752 10.1395C14.9752 10.0855 14.9778 10.0289 14.9856 9.96206C14.9934 9.89775 15.0012 9.84631 15.0142 9.81544V9.77686H12.293V9.81544C12.3268 9.8566 12.3892 9.94662 12.4829 10.0932C12.5765 10.2373 12.6806 10.4173 12.8003 10.6334C12.9199 10.8443 13.0448 11.0784 13.1775 11.3408C13.3154 11.6031 13.4481 11.8758 13.5755 12.1562L18.9686 24.1685H19.7621L25.4543 11.6752C25.665 11.2044 25.8628 10.8083 26.0397 10.4868C26.2192 10.1653 26.3701 9.94405 26.4975 9.81801V9.77943H24.4605V9.81801V9.81287Z" fill="white"/>
<path d="M27.627 9.813C27.666 9.9519 27.7024 10.1217 27.7362 10.3249C27.77 10.5281 27.7987 10.7827 27.8247 11.0914C27.8507 11.3924 27.8715 11.7525 27.8845 12.1717C27.8975 12.5859 27.9053 13.0694 27.9053 13.6276V20.0196C27.9053 20.5752 27.8975 21.064 27.8845 21.4832C27.8715 21.8948 27.8507 22.2523 27.8247 22.5533C27.7987 22.8542 27.7674 23.1063 27.7362 23.3095C27.7024 23.5127 27.666 23.6825 27.627 23.8214V23.86H29.9996V23.8214C29.9606 23.6851 29.9189 23.5127 29.8799 23.3095C29.8461 23.1063 29.8175 22.8542 29.7915 22.5533C29.7706 22.2523 29.7524 21.8948 29.7316 21.4832C29.7186 21.064 29.7108 20.5752 29.7108 20.0196V13.6276C29.7108 13.0694 29.7186 12.5859 29.7316 12.1717C29.7524 11.755 29.7706 11.3949 29.7915 11.0914C29.8175 10.7827 29.8487 10.5281 29.8799 10.3249C29.9189 10.1217 29.9606 9.9519 29.9996 9.813V9.77441H27.627V9.813Z" fill="white"/>
<path d="M41.7088 9.81313C41.7479 9.95203 41.7843 10.1218 41.8181 10.325C41.8571 10.5282 41.8909 10.7829 41.917 11.0915C41.943 11.3925 41.9638 11.7526 41.9768 12.1719C41.9898 12.586 41.9976 13.0696 41.9976 13.6278V20.5419L31.7656 9.77712H31.1309V9.8157C31.1699 9.9546 31.2063 10.1244 31.2401 10.3276C31.2791 10.5308 31.313 10.7854 31.339 11.0941C31.365 11.3951 31.3858 11.7552 31.3988 12.1744C31.4118 12.5886 31.4196 13.0722 31.4196 13.6303V20.0223C31.4196 20.5779 31.4118 21.0667 31.3988 21.4859C31.3858 21.8975 31.365 22.255 31.339 22.556C31.313 22.8569 31.2791 23.109 31.2401 23.3122C31.2063 23.5154 31.1699 23.6852 31.1309 23.8241V23.8627H32.8999V23.8241C32.8609 23.6878 32.8245 23.5154 32.7907 23.3122C32.7568 23.109 32.7282 22.8569 32.7022 22.556C32.6762 22.255 32.6554 21.8975 32.6424 21.4859C32.6294 21.0667 32.6216 20.5779 32.6216 20.0223V13.3037L42.8535 24.0582H43.2021V13.6252C43.2021 13.067 43.2099 12.5834 43.223 12.1693C43.236 11.7526 43.2568 11.3925 43.2828 11.089C43.3088 10.7803 43.34 10.5256 43.3712 10.3224C43.4051 10.1192 43.4415 9.94946 43.4805 9.81056V9.77197H41.7114V9.81056L41.7088 9.81313Z" fill="white"/>
<path d="M55.653 18.5641C55.6999 18.7158 55.7389 18.8779 55.7727 19.0554C55.8065 19.2303 55.8351 19.4463 55.8612 19.6933C55.8872 19.9351 55.908 20.2232 55.921 20.5575C55.934 20.8919 55.9418 21.2881 55.9418 21.7459V22.1292C55.9418 22.2346 55.8768 22.353 55.7441 22.4816C55.6192 22.605 55.4293 22.7234 55.1769 22.834C54.9246 22.9394 54.6176 23.0269 54.2534 23.0989C53.8892 23.1709 53.4755 23.207 53.0124 23.207C51.9666 23.207 51.0483 23.0295 50.26 22.6771C49.4795 22.317 48.8265 21.8231 48.3036 21.1929C47.7807 20.5653 47.3853 19.8219 47.1225 18.9653C46.8571 18.1062 46.7245 17.1776 46.7245 16.1745C46.7245 15.2639 46.8623 14.4536 47.1407 13.7385C47.4191 13.026 47.8067 12.4241 48.3036 11.9303C48.8057 11.439 49.4067 11.066 50.1013 10.8113C50.7959 10.549 51.5608 10.4178 52.3959 10.4178C52.8251 10.4178 53.2492 10.4589 53.668 10.5438C54.0921 10.6236 54.4953 10.7342 54.8804 10.8782C55.2654 11.0223 55.6244 11.192 55.9626 11.3901C56.3008 11.5856 56.5974 11.7991 56.8576 12.028L56.9382 11.9894L56.2618 10.1734C55.9912 10.0757 55.7025 9.98565 55.3981 9.90849C55.0989 9.82875 54.7893 9.76444 54.4641 9.713C54.1389 9.65384 53.8111 9.61011 53.4807 9.58696C53.1503 9.55352 52.8251 9.53809 52.5077 9.53809C51.6856 9.53809 50.9208 9.63326 50.2132 9.8236C49.5107 10.0062 48.8655 10.266 48.275 10.5978C47.6922 10.9322 47.1719 11.3284 46.7166 11.7862C46.2588 12.2364 45.8763 12.7354 45.5642 13.2781C45.252 13.8209 45.0152 14.3945 44.8487 14.9964C44.69 15.6008 44.6094 16.2105 44.6094 16.833C44.6094 17.9339 44.8045 18.9345 45.1947 19.8399C45.585 20.7376 46.1339 21.5067 46.8441 22.1472C47.5596 22.7902 48.4129 23.2893 49.4067 23.6391C50.4005 23.9863 51.4983 24.1613 52.7055 24.1613C53.2414 24.1613 53.7409 24.1227 54.2066 24.0429C54.6774 23.9709 55.1145 23.8654 55.5178 23.7291C55.921 23.5902 56.2956 23.4307 56.639 23.2455C56.9902 23.0578 57.3154 22.8494 57.612 22.6282C57.6719 22.5742 57.7083 22.5099 57.7213 22.4327C57.7421 22.353 57.7499 22.2784 57.7499 22.2064V21.8051C57.7499 21.3524 57.7577 20.9562 57.7707 20.6167C57.7837 20.2695 57.8045 19.9685 57.8305 19.7113C57.8566 19.4566 57.8878 19.238 57.919 19.0554C57.958 18.865 57.9997 18.703 58.0387 18.5641V18.5255H55.6556V18.5641H55.653Z" fill="white"/>
<path d="M81.5727 22.2805C81.3776 21.9384 81.1668 21.5526 80.9379 21.123C80.722 20.6857 80.5086 20.2356 80.3031 19.7752L71.476 0.128418H70.1752L60.859 20.5623C60.513 21.3442 60.193 21.9976 59.899 22.5223C59.605 23.0368 59.3631 23.3969 59.168 23.6001V23.6644H62.485V23.6001C62.4642 23.5666 62.4407 23.5101 62.4199 23.4226C62.3991 23.3274 62.3887 23.2091 62.3887 23.0702C62.3887 22.5866 62.4798 22.1108 62.6645 21.6375C62.8492 21.1667 63.0235 20.732 63.1848 20.3359L65.0553 16.0917C65.6953 16.0711 66.4107 16.0609 67.2016 16.0609H72.9563C73.9657 16.0609 74.7722 16.0711 75.3783 16.0917L77.3451 20.4645C77.6053 21.0664 77.7796 21.568 77.8654 21.977C77.9643 22.3731 78.0111 22.7384 78.0111 23.0702C78.0111 23.1551 78.0059 23.2528 77.9955 23.3583C77.9851 23.4663 77.9695 23.5461 77.9461 23.6001V23.6644H82.4026V23.6001C82.348 23.5358 82.2465 23.3866 82.093 23.1499C81.9395 22.9133 81.7678 22.6252 81.5727 22.2805ZM73.1176 14.6461C72.5322 14.6461 71.9209 14.6513 71.2809 14.6616C70.6513 14.6616 70.0061 14.6667 69.3453 14.677H65.6537L70.1414 4.40348L74.7098 14.6127C74.2337 14.623 73.7003 14.6358 73.1176 14.6461Z" stroke="white" stroke-width="0.5" stroke-miterlimit="10"/>
<path d="M103.577 2.20165C104.607 2.08333 105.762 2.02674 107.04 2.02674V17.3779C107.04 18.2884 107.029 19.0884 107.009 19.7752C106.988 20.4491 106.954 21.033 106.91 21.5269C106.865 22.0182 106.819 22.4323 106.764 22.7641C106.709 23.0959 106.65 23.3763 106.584 23.6001V23.6644H110.471V23.6001C110.406 23.3763 110.341 23.0959 110.276 22.7641C110.221 22.4323 110.172 22.0182 110.13 21.5269C110.099 21.033 110.065 20.4491 110.032 19.7752C110.011 19.0884 110 18.2884 110 17.3779V2.02674C111.28 2.02674 112.433 2.08333 113.463 2.20165C114.493 2.30969 115.38 2.42801 116.13 2.55662C116.996 2.7161 117.776 2.89358 118.471 3.0865L118 0.483398C117.87 0.493687 117.675 0.503976 117.415 0.514265C117.155 0.524554 116.863 0.534843 116.535 0.545132C116.221 0.557993 115.885 0.568282 115.526 0.578571C115.18 0.578571 114.85 0.583716 114.535 0.594005C114.22 0.594005 113.939 0.599149 113.689 0.61201H103.348C103.109 0.599149 102.833 0.594005 102.518 0.594005C102.203 0.583716 101.868 0.578571 101.509 0.578571C101.163 0.568282 100.827 0.557993 100.499 0.545132C100.185 0.534843 99.8984 0.524554 99.6383 0.514265C99.3781 0.503976 99.183 0.493687 99.0529 0.483398L98.582 3.0865C99.2636 2.89358 100.039 2.7161 100.908 2.55662C101.654 2.42801 102.544 2.30969 103.574 2.20165H103.577Z" stroke="white" stroke-width="0.5" stroke-miterlimit="10"/>
<path d="M119.167 25.3135C119.167 25.3135 113.581 31.3995 107.01 27.2967C100.438 23.194 97.5921 17.9441 97.5921 17.9441C96.8376 16.8689 95.9947 15.5853 95.0608 14.0934C95.0608 14.0934 94.3869 12.6787 94.9619 12.0434C95.4718 11.6267 95.9037 11.1482 96.2627 10.6132C96.6321 10.0782 96.9131 9.48142 97.1082 8.82808C97.3137 8.16444 97.4178 7.44679 97.4178 6.67511C97.4178 5.68738 97.2331 4.81024 96.8662 4.03857C96.5072 3.25661 96.0051 2.59555 95.3547 2.06052C94.7043 1.5255 93.9343 1.11651 93.0445 0.838708C92.1652 0.560907 91.2078 0.419434 90.1672 0.419434C89.0511 0.419434 88.1302 0.473451 87.4017 0.581485C86.6863 0.676657 86.1166 0.72553 85.6951 0.72553H84.899C84.6493 0.715241 84.4229 0.699807 84.2148 0.676657C83.9755 0.656079 83.7491 0.635502 83.5332 0.614924V0.676657C83.5982 0.903014 83.6581 1.18082 83.7127 1.51521C83.7778 1.84703 83.8324 2.26373 83.874 2.76789C83.9182 3.26176 83.9495 3.8508 83.9729 4.53501C83.9937 5.21151 84.0041 6.00376 84.0041 6.9169V17.3808C84.0041 18.2913 83.9937 19.0913 83.9729 19.7781C83.9521 20.452 83.9182 21.0359 83.874 21.5298C83.8298 22.0211 83.7751 22.4352 83.7127 22.767C83.6581 23.0988 83.5982 23.3792 83.5332 23.603V23.6673H87.4356V23.603C87.3705 23.3792 87.3055 23.0988 87.2404 22.767C87.1858 22.4352 87.1364 22.0211 87.0948 21.5298C87.0635 21.0359 87.0297 20.452 86.9959 19.7781C86.9751 19.0913 86.9647 18.2913 86.9647 17.3808V13.7642C87.55 13.8619 88.125 13.9082 88.6869 13.9082C88.8846 13.9082 89.0771 13.9005 89.2723 13.8954H89.2671C90.0215 13.8954 90.5548 13.9957 90.8644 14.1938C91.1766 14.3687 91.4966 14.7108 91.8296 15.2149L92.428 16.1692C93.5831 18.0573 94.4806 19.418 95.1258 20.2514C98.513 24.6756 104 29.3339 109.684 29.8355C115.369 30.3371 119.992 26.0826 119.867 25.3676C119.742 24.6525 119.167 25.3187 119.167 25.3187V25.3135ZM86.9621 12.5064V1.86503C87.1468 1.80072 87.3783 1.74156 87.6619 1.68755C87.9012 1.64639 88.1926 1.60781 88.5412 1.57437C88.8872 1.53321 89.2957 1.51263 89.7614 1.51263C90.4976 1.51263 91.1428 1.64125 91.6969 1.89847C92.2511 2.14283 92.7063 2.4978 93.0628 2.95823C93.4322 3.40837 93.7079 3.9614 93.8927 4.61475C94.0774 5.2681 94.1684 5.99604 94.1684 6.80115C94.1684 7.95866 93.9889 8.94383 93.6325 9.75923C93.2865 10.5618 92.7922 11.1997 92.1522 11.673C91.5226 12.1437 90.7656 12.4498 89.8758 12.5887C88.9991 12.7276 88.0287 12.7019 86.9647 12.5064H86.9621Z" stroke="white" stroke-width="0.5" stroke-miterlimit="10"/>
</g>
<defs>
<clipPath id="clip0_1645_340">
<rect width="120" height="30" fill="white"/>
</clipPath>
</defs>
</svg>
