<?xml version="1.0" encoding="utf-8"?>
<!-- Generator: Adobe Illustrator 27.8.1, SVG Export Plug-In . SVG Version: 6.00 Build 0)  -->
<svg version="1.1" id="Слой_1" xmlns="http://www.w3.org/2000/svg" xmlns:xlink="http://www.w3.org/1999/xlink" x="0px" y="0px"
	 viewBox="0 0 600 120" style="enable-background:new 0 0 600 120;" xml:space="preserve">
<style type="text/css">
	.st0{fill:#FFFFFF;}
</style>
<g id="living">
	<path class="st0" d="M34.5,27.6c-0.5,0.3-0.9,0.7-1.2,1.1c-0.6,0.7-1,1.5-1.1,2.3c-0.2,0.7-0.3,1.5-0.2,2.1c0,3.2,0,39.1,0,40.5
		c0,1.3,0.1,2.7,0.3,4.1c0.1,1.4,0.4,2.8,0.7,4c0.3,1.4,0.8,2.4,1.5,3c0.5,0.6,1.1,1.1,1.9,1.5c0.7,0.3,1.5,0.6,2.4,0.8
		c0.8,0.2,1.6,0.3,2.4,0.3c0.7,0.1,1.4,0.1,2,0.1c0,0,0,0,0,0l1.3,0c1.2,0,2.6-0.1,4-0.1c1.5-0.1,3-0.4,4.4-0.9
		c1.5-0.6,2.9-1.5,4.1-2.8c0.3-0.3,0.5-0.6,0.8-0.9c-0.1,0.5-0.1,0.9-0.2,1.4c-0.2,1.1-0.4,2.3-0.6,3.4c-0.1,0.6-0.3,1.2-0.4,1.7H21
		c0.7-0.6,1.3-1.3,1.9-2.1c0.7-0.9,1.2-1.8,1.4-2.6l0-0.2l0-0.2c0.2-1.6,0-47.3,0-47.7c0-1.7-0.1-3.1-0.2-4.2
		c-0.2-1.4-0.8-2.7-1.9-3.8c-0.2-0.2-0.5-0.4-0.8-0.7H34.5 M41.2,25.3H14.7l0,1.6l0.8,0.3c3.3,1.2,4.7,2.2,5.2,2.7
		c0.7,0.8,1.1,1.6,1.3,2.5c0.1,0.9,0.3,50.1,0.2,51.4c-0.1,0.5-0.5,1.1-1,1.8c-0.6,0.7-1.2,1.4-1.9,2c-0.2,0.2-0.5,0.4-0.7,0.6
		l-3.8,3.2h43.4l0.2-0.6c0.3-0.7,0.5-1.7,0.8-2.9c0.2-1.1,0.5-2.3,0.6-3.5c0.2-1.2,0.3-2.4,0.4-3.6c0.1-1.2,0.1-2.2,0.1-3l0-1.2
		c0,0-4.7,6.4-8.3,7.6c-1.2,0.5-2.5,0.7-3.8,0.8c-1.4,0.1-2.7,0.1-3.9,0.1l-1.3,0c0,0-0.1,0-0.1,0c-0.5,0-1,0-1.7-0.1
		c-0.7-0.1-1.4-0.2-2.1-0.3c-0.7-0.1-1.3-0.3-1.9-0.6c-0.5-0.2-0.9-0.5-1.2-0.9L36,83c-0.2-0.2-0.5-0.6-0.8-1.9
		c-0.3-1.2-0.5-2.4-0.6-3.7c-0.1-1.3-0.2-2.7-0.3-3.9c0-1.3-0.1-36.9,0-40.4c0-0.5,0.1-1.1,0.2-1.6c0.1-0.5,0.3-0.9,0.7-1.4
		c0.4-0.4,0.9-0.9,1.7-1.3c0.9-0.4,2-0.8,3.4-1.1l0.9-0.2L41.2,25.3L41.2,25.3z"/>
	<path class="st0" d="M88.2,88.9c-2.8-0.3-4.3-1.7-4.6-4.4c-0.2-1.6-0.3-3.3-0.4-4.9c-0.1-1.7-0.1-3.4-0.1-5c0,0,0-2.6,0-6.5h0
		c0-10.8,0.1-35.5,0.1-35.5c0-1.5,0.3-2.5,1-3.1c0.8-0.7,1.9-1.3,3.2-1.8l0.8-0.3v-2.2H65.7v1.5l0.7,0.3c1.5,0.6,2.6,1.2,3.4,1.8
		c0.7,0.5,1.2,1.1,1.5,1.8c0.3,0.8,0.5,1.8,0.5,2.9c0,1.3,0,40.9,0,40.9c0,1.6,0,3.3-0.1,5c-0.1,1.7-0.2,3.3-0.4,4.9
		c-0.3,2.7-1.8,4.1-4.6,4.4L65.7,89v2.4h9.1h14.1h0.4V89L88.2,88.9z M75.4,89.1h-3.5c1-1.1,1.6-2.5,1.8-4.3c0.2-1.7,0.3-3.4,0.4-5.1
		c0.1-1.7,0.1-3.4,0.1-5.1c0-1.6,0-39.7,0-40.9c0-1.4-0.3-2.7-0.7-3.7c-0.4-0.9-0.9-1.6-1.6-2.3h11c-0.1,0-0.1,0.1-0.1,0.1
		c-1.2,1-1.8,2.6-1.8,4.8c0,1.5-0.2,35.6-0.1,40.1c0,1,0,1.7,0,1.9c0,1.6,0,3.3,0.1,5.1c0.1,1.7,0.2,3.5,0.4,5.1
		c0.2,1.8,0.8,3.3,1.8,4.3H75.4z"/>
	<path class="st0" d="M153.8,27.6c-0.8,0.5-1.4,0.9-2,1.4c-0.7,0.6-1.3,1.3-1.8,2c-0.4,0.6-0.8,1.4-1.4,2.5l-21.6,51.9l-11.9-28.3
		c-5.7-13.4-5.7-13.4-6.6-15.7l-0.4-1c-1.2-3-2.5-5.6-3.8-7.8c-1.2-2-2.4-3.7-3.7-4.9l12.7,0c0,0,0,0.1-0.1,0.1
		c-0.4,0.9-0.6,1.9-0.6,2.8c0,1,0.1,2.1,0.4,3.1c0.2,1,0.5,1.9,0.8,2.4l13,33.1l2.1,5.4l2.2-5.3c0,0,15.1-37.4,15.4-37.9
		c0.7-2-0.6-3-1.2-3.6H153.8 M161.4,25.3h-24.5c1.8,1,6.3,3.5,6.7,3.8c1.1,0.6,0.5,1.9,0.5,1.9l-15.1,37.2l-13-33.1
		c-0.3-0.6-0.5-1.3-0.7-2.1c-0.2-0.8-0.3-1.7-0.3-2.5c0-0.6,0.1-1.2,0.4-1.8c0.2-0.5,0.6-0.9,1.2-1.2l0.6-0.3v-1.9l0,0H93.8V27
		l1,0.1c1.4,0.1,2.6,0.8,3.8,1.8c1.3,1.1,2.5,2.8,3.7,4.8c1.2,2.1,2.4,4.6,3.6,7.6c2.1,5.2-0.5-1.2,21.1,50.1l23.7-57
		c0.4-0.8,0.8-1.6,1.2-2.1c0.3-0.5,0.7-1,1.3-1.4c0.6-0.5,1.3-1,2.2-1.5c0.3-0.2,0.6-0.3,0.9-0.5c1.5-0.6,3.4-1.5,4.2-1.8l0.8-0.3
		V25.3L161.4,25.3z"/>
	<path class="st0" d="M190.3,88.9c-2.8-0.3-4.3-1.7-4.6-4.4c-0.2-1.6-0.3-3.3-0.4-4.9c-0.1-1.7-0.1-3.4-0.1-5c0,0,0-2.6,0-6.5h0
		c0-10.8,0.1-35.5,0.1-35.5c0-1.5,0.3-2.5,1-3.1c0.8-0.7,1.9-1.3,3.2-1.8l0.8-0.3v-2.2h-22.5v1.5l0.7,0.3c1.5,0.6,2.6,1.2,3.4,1.8
		c0.7,0.5,1.2,1.1,1.5,1.8c0.3,0.8,0.5,1.8,0.5,2.9c0,1.3,0,40.9,0,40.9c0,1.6,0,3.3-0.1,5c-0.1,1.7-0.2,3.3-0.4,4.9
		c-0.3,2.7-1.8,4.1-4.6,4.4l-1.1,0.1v2.4h9.1H191h0.4V89L190.3,88.9z M177.5,89.1H174c1-1.1,1.6-2.5,1.8-4.3
		c0.2-1.7,0.3-3.4,0.4-5.1c0.1-1.7,0.1-3.4,0.1-5.1c0-1.6,0-39.7,0-40.9c0-1.4-0.3-2.7-0.7-3.7c-0.4-0.9-0.9-1.6-1.6-2.3h11
		c-0.1,0-0.1,0.1-0.1,0.1c-1.2,1-1.8,2.6-1.8,4.8c0,1.5-0.2,35.6-0.1,40.1c0,1,0,1.7,0,1.9c0,1.6,0,3.3,0.1,5.1
		c0.1,1.7,0.2,3.5,0.4,5.1c0.2,1.8,0.8,3.3,1.8,4.3H177.5z"/>
	<path class="st0" d="M257.3,27.6c-0.3,0.4-0.5,0.7-0.7,1.2c-0.9,1.9-1.5,3.9-1.6,6.2l0.4,51l-42.5-39.5l-4.1-3.8l0.2,5.6l1.4,31
		c0.1,1.2,0.2,2.6,0.5,4.1c0.3,1.3,0.8,2.6,1.3,3.7c0.3,0.7,0.8,1.3,1.2,1.9h-10.1c1-0.9,1.8-1.9,2.2-2.8c0.6-1.2,0.9-2.4,0.9-3.7
		c0-1.2,0-4.2,0-4.2l-0.6-47.6l42.5,40.1l4,3.8l-0.1-5.5l-0.5-31.4c0-3.1-0.8-5.8-2.4-8.2c-0.5-0.7-1-1.3-1.6-1.8H257.3 M263,25.3
		h-22.2l0,1.7l0.9,0.2c2.6,0.4,4.4,1.6,5.6,3.5c1.3,2,2,4.3,2,7l0.5,31.4l-46.5-43.8l0.7,53c0,0,0,3,0,4.1c0,1-0.3,1.9-0.7,2.7
		c-0.3,0.8-1,1.6-1.9,2.3c-0.8,0.7-2.1,1.2-3.9,1.6l-0.9,0.2l0,2.1h22.5l0-1.8l-1-0.1c-0.9-0.1-1.7-0.5-2.3-1
		c-0.7-0.6-1.3-1.3-1.7-2.2c-0.5-1-0.9-2-1.1-3.2c-0.2-1.2-0.4-2.5-0.5-3.8l-1.4-30.9l46.4,43.1L257.3,35c0.1-1.9,0.5-3.6,1.3-5.2
		c0.7-1.4,1.8-2.1,3.4-2.4l1-0.2L263,25.3L263,25.3z"/>
	<path class="st0" d="M300.8,27.6c1.2,0,2.4,0,3.7,0.1c1.2,0.1,2.7,0.3,4.4,0.5c1.7,0.3,3.6,0.6,5.8,1.1c2,0.4,4.4,1,7.1,1.7
		c0,1.5,0,2.9-0.1,4c-0.1,1.3-0.2,2.5-0.4,3.6c-0.1,0.8-0.3,1.6-0.6,2.3c-0.4-1.1-1-2.2-1.7-3.2c-1.4-1.9-3.3-3.4-5.4-4.7
		c-2.1-1.2-4.4-2.1-7-2.7c-2.5-0.6-4.9-0.9-7.1-0.9c-4,0-7.6,0.7-10.5,2c-3,1.3-5.4,3.2-7.4,5.5c-1.9,2.3-3.4,5.1-4.3,8.3
		c-0.9,3.1-1.4,6.6-1.4,10.2c0,4.1,0.6,8.1,1.8,11.9c1.2,3.8,3,7.2,5.4,10.1c2.4,2.9,5.4,5.3,8.9,7c3.5,1.7,7.6,2.6,12.1,2.6
		c1,0,2,0,3,0c1.1,0,2.1-0.2,2.9-0.5c1-0.3,1.8-0.8,2.4-1.4c0.7-0.7,1-1.8,1-3V69.8c0-1,0-2.8-0.2-3.8c-0.2-1.1-0.6-2.2-1.2-3.3
		c-0.6-1-1.4-2-2.3-2.9c0,0,0,0-0.1-0.1h14.8c-0.3,0.3-0.6,0.6-0.8,0.9c-0.9,1.1-1.6,2.3-2,3.4c-0.4,1.2-0.7,2.4-0.7,3.5
		c-0.1,1.1-0.1,2.3-0.1,3.4v12.5c0,0.2,0,0.3,0.1,0.7c0,0.1,0,0.2,0,0.3c0,0.6-0.2,0.9-0.3,1.1c-0.9,0.6-2,1-3.5,1.4
		c-1.7,0.4-3.5,0.8-5.3,1.1c-1.9,0.3-3.7,0.5-5.5,0.7c-1.8,0.1-3.1,0.2-4.1,0.2c-5,0-9.8-0.7-14-1.9c-4.2-1.3-7.9-3.2-10.9-5.8
		c-3-2.6-5.5-5.8-7.2-9.6c-1.7-3.8-2.6-8.3-2.6-13.4c0-4.9,0.8-9.4,2.4-13.2c1.6-3.8,3.8-7,6.7-9.6c2.9-2.6,6.4-4.6,10.5-6
		C291.3,28.3,295.8,27.6,300.8,27.6 M300.8,25.3c-5.2,0-10.1,0.7-14.4,2.2c-4.3,1.5-8.1,3.6-11.3,6.5c-3.1,2.8-5.6,6.4-7.3,10.5
		c-1.7,4.1-2.5,8.8-2.5,14c0,5.4,0.9,10.2,2.8,14.3c1.9,4.1,4.5,7.6,7.8,10.4c3.3,2.8,7.2,4.9,11.7,6.2c4.5,1.4,9.4,2,14.7,2
		c1,0,2.4-0.1,4.3-0.2c1.8-0.2,3.7-0.4,5.6-0.7c2-0.3,3.8-0.7,5.6-1.2c1.8-0.5,3.3-1.1,4.4-1.9l0.1-0.1c0.6-0.7,1-1.6,1-2.7
		c0-0.2,0-0.5-0.1-0.7c0-0.1,0-0.2,0-0.3V71.1c0-1.1,0-2.2,0.1-3.3c0.1-1,0.3-1.9,0.6-2.9c0.3-0.9,0.9-1.8,1.6-2.7
		c0.7-0.9,1.8-1.7,3.3-2.6l3.7-2.1h-27.9v2.1l0.8,0.3c1.2,0.4,2.2,1,2.9,1.7c0.8,0.7,1.4,1.5,1.9,2.4c0.5,0.8,0.8,1.7,1,2.6
		c0.2,0.9,0.2,3.2,0.2,3.4v12.3c0,0.7-0.1,1.2-0.4,1.5c-0.3,0.4-0.8,0.6-1.4,0.8c-0.7,0.2-1.5,0.3-2.3,0.4c-1,0-1.9,0-2.9,0
		c-4.1,0-7.9-0.8-11.1-2.4c-3.2-1.6-6-3.7-8.1-6.4c-2.2-2.7-3.9-5.8-5-9.3c-1.1-3.5-1.7-7.3-1.7-11.2c0-3.4,0.4-6.7,1.3-9.6
		c0.8-2.9,2.1-5.4,3.9-7.5c1.7-2,3.9-3.7,6.5-4.9c2.6-1.2,5.9-1.8,9.6-1.8c2,0,4.2,0.3,6.6,0.8c2.3,0.5,4.4,1.4,6.3,2.5
		c1.9,1.1,3.5,2.5,4.7,4.1c1.2,1.5,1.8,3.3,1.8,5.4v4.1l2.2-3.5c0.6-0.9,1.1-1.9,1.5-2.9c0.4-1,0.7-2.1,0.9-3.3
		c0.2-1.1,0.3-2.4,0.4-3.9c0.1-1.4,0.1-3.1,0.1-5v-0.9l-0.9-0.2c-3.1-0.8-5.9-1.5-8.1-2c-2.2-0.5-4.2-0.9-5.9-1.1
		c-1.7-0.3-3.3-0.5-4.6-0.6C303.3,25.3,302,25.3,300.8,25.3L300.8,25.3z"/>
</g>
<path class="st0" d="M583.7,15.4c-0.1-1.2-0.2-2.3-0.4-3.2c-0.2-1-0.5-1.8-0.8-2.4c-0.3-0.6-0.8-0.9-1.3-0.9h-75.3
	c-0.5,0-0.9,0.3-1.3,0.9c-0.3,0.6-0.6,1.4-0.8,2.4c-0.2,1-0.3,2-0.4,3.2c-0.1,1.2-0.1,2.3-0.1,3.3c0,1.5,0.1,2.9,0.3,4.2
	c0.2,1.3,0.6,2.3,1.3,3.2c0.4-1.9,1.2-3.5,2.4-4.9c1.2-1.4,2.5-2.5,4.1-3.4c1.5-0.9,3.1-1.6,4.8-2c1.7-0.4,3.2-0.6,4.6-0.6l15-0.4
	c0.2,0,0.3,0,0.4,0c0,0.9,0.2,64,0,68.1c0,1.5-0.6,2.8-1.8,4c-1.2,1.2-3.8,2.5-7.8,4.1v0.2h2.3h26.2h5.7v-0.2
	c-4-1.5-6.7-2.9-7.8-4.1c-1.2-1.2-1.8-2.5-1.8-4c-0.2-4.1,0-67.3,0-68.1l15.4,0.4c1.4,0,2.9,0.2,4.6,0.6c1.7,0.4,3.3,1.1,4.8,2
	c1.5,0.9,2.9,2,4.1,3.4c1.2,1.4,2,3,2.4,4.9c0.7-0.9,1.1-2,1.3-3.2c0.2-1.3,0.3-2.7,0.3-4.2C583.9,17.7,583.8,16.6,583.7,15.4z"/>
<path class="st0" d="M475.3,53.6c2-1.1,16.1-5.2,15.7-25.2c0-2.8-0.6-5.5-1.9-8.1c-1.3-2.6-3.3-4.9-6.1-6.8
	c-3.2-2.1-6.7-3.4-10.6-3.9c-3.9-0.5-7.8-0.7-11.5-0.7l-34.2,0v0.2c2.5,0.9,4.4,1.7,5.7,2.5c1.3,0.7,2.3,1.7,2.9,2.8
	c0.6,1.1,0.9,2.5,1,4.2c0.1,1.7-0.1,58.4-0.4,65.3c0,1.3-0.5,2.6-1.6,3.9c-1.1,1.3-3.6,2.5-7.7,3.6v0.1h31.5
	c-2.8-1.2-4.8-2.3-5.9-3.4c-1.3-1.3-1.9-2.7-1.9-4.4c0,0,0.3-23.4,0.3-25.4c0-0.6,0.5-0.9,1.5-0.9c0.6,0,10.1-1.9,15.3,4.5
	c18,27.8,26.3,67,112.7,40.4C519,110.6,500.5,101.8,475.3,53.6z M469.2,49.8c-1.3,0.9-2.6,1.4-3.7,1.6c-1.1,0.2-2.4,0.3-3.7,0.3
	c-0.6,0-1.3,0-2.2,0c-0.9,0-1.8,0-2.7-0.1c-0.9-0.1-1.7-0.2-2.5-0.2c-0.8-0.1-1.3-0.2-1.6-0.4c-0.9-0.4-1.4-0.8-1.7-1.1
	c-0.3-0.4-0.4-0.7-0.4-1.1V16.9c0-0.4,0.2-0.7,0.6-0.9c0.4-0.2,1-0.4,1.6-0.5c0.7-0.1,1.3-0.2,1.9-0.2c0.6,0,1.2-0.1,1.6-0.1
	c3.4,0,6.4,0.5,8.9,1.6c2.5,1.1,4.5,2.5,6,4.3c1.5,1.8,2.6,3.8,3.4,6.1c0.7,2.3,1.1,4.5,1.1,6.8c0,2.7-0.5,5.6-1.4,8.5
	C473.4,45.4,471.7,47.8,469.2,49.8z"/>
<path class="st0" d="M355.7,91.4c-0.9-0.5-1.8-1-2.9-1.8c-3.7-3.7,3.9-16.6,3.9-16.6H392l6,13.4c0.8,1.3,0.6,3.7-4.9,4.9v0.1h29
	c-1-0.4-1.9-1-2.8-1.6c-1.3-1.1-2.6-2.2-3.7-3.5c-5.7-4.6-37.8-77.4-37.8-77.4l-34,72c-0.6,1.1-1.4,2.2-2.3,3.4
	c-0.9,1.2-2,2.3-3.3,3.3c-1.2,1-2.5,1.9-3.9,2.6c-1.4,0.7-2.8,1.1-4.3,1.3v0.1H355.7z M374.9,34.7l15.1,34h-31.3L374.9,34.7z"/>
</svg>
